{
  "accessors": [
    {
      "bufferView": 2,
      "componentType": 5126,
      "count": 264,
      "max": [
        0.027542289346456528,
        0.17403486371040344,
        -0.11704854667186737
      ],
      "min": [
        -0.027542192488908768,
        0.015006184577941895,
        -0.17213302850723267
      ],
      "type": "VEC3"
    },
    {
      "bufferView": 2,
      "byteOffset": 3168,
      "componentType": 5126,
      "count": 264,
      "max": [
        0.9993594884872437,
        0.999360203742981,
        0.9993594884872437
      ],
      "min": [
        -0.9993594288825989,
        -0.999360203742981,
        -0.9993594884872437
      ],
      "type": "VEC3"
    },
    {
      "bufferView": 1,
      "componentType": 5126,
      "count": 264,
      "max": [
        1.0,
        0.5
      ],
      "min": [
        0.0,
        0.5
      ],
      "type": "VEC2"
    },
    {
      "bufferView": 0,
      "componentType": 5125,
      "count": 768,
      "type": "SCALAR"
    },
    {
      "bufferView": 2,
      "byteOffset": 6336,
      "componentType": 5126,
      "count": 7492,
      "max": [
        0.13736937940120697,
        0.4889834523200989,
        -0.11542961001396179
      ],
      "min": [
        -0.13736946880817413,
        -0.0369231216609478,
        -0.17375195026397705
      ],
      "type": "VEC3"
    },
    {
      "bufferView": 2,
      "byteOffset": 96240,
      "componentType": 5126,
      "count": 7492,
      "max": [
        1.0,
        1.0,
        1.0
      ],
      "min": [
        -1.0,
        -1.0,
        -1.0
      ],
      "type": "VEC3"
    },
    {
      "bufferView": 1,
      "byteOffset": 2112,
      "componentType": 5126,
      "count": 7492,
      "max": [
        1.0000226497650146,
        1.0
      ],
      "min": [
        -2.2578155039809644e-05,
        0.0
      ],
      "type": "VEC2"
    },
    {
      "bufferView": 0,
      "byteOffset": 3072,
      "componentType": 5125,
      "count": 35313,
      "type": "SCALAR"
    },
    {
      "bufferView": 2,
      "byteOffset": 186144,
      "componentType": 5126,
      "count": 1024,
      "max": [
        0.1250593066215515,
        0.4766733944416046,
        -0.13738633692264557
      ],
      "min": [
        -0.12505939602851868,
        0.22655470669269562,
        -0.15109199285507202
      ],
      "type": "VEC3"
    },
    {
      "bufferView": 2,
      "byteOffset": 198432,
      "componentType": 5126,
      "count": 1024,
      "max": [
        0.9914430975914001,
        0.9914399981498718,
        0.9909232258796692
      ],
      "min": [
        -0.9914430975914001,
        -0.9914520978927612,
        -0.9909266829490662
      ],
      "type": "VEC3"
    },
    {
      "bufferView": 1,
      "byteOffset": 62048,
      "componentType": 5126,
      "count": 1024,
      "max": [
        0.0,
        0.0
      ],
      "min": [
        0.0,
        0.0
      ],
      "type": "VEC2"
    },
    {
      "bufferView": 0,
      "byteOffset": 144324,
      "componentType": 5125,
      "count": 6120,
      "type": "SCALAR"
    }
  ],
  "asset": {
    "extras": {
      "author": "rikugo.studio (https://sketchfab.com/rikugo.studio)",
      "license": "CC-BY-4.0 (http://creativecommons.org/licenses/by/4.0/)",
      "source": "https://sketchfab.com/3d-models/realistic-magnifying-glass-c601cb15bf794fcc920ddd3b24342dfb",
      "title": "Realistic Magnifying Glass"
    },
    "generator": "Sketchfab-13.63.0",
    "version": "2.0"
  },
  "bufferViews": [
    {
      "buffer": 0,
      "byteLength": 168804,
      "name": "floatBufferViews",
      "target": 34963
    },
    {
      "buffer": 0,
      "byteLength": 70240,
      "byteOffset": 168804,
      "byteStride": 8,
      "name": "floatBufferViews",
      "target": 34962
    },
    {
      "buffer": 0,
      "byteLength": 210720,
      "byteOffset": 239044,
      "byteStride": 12,
      "name": "floatBufferViews",
      "target": 34962
    }
  ],
  "buffers": [
    {
      "byteLength": 449764,
      "uri": "scene.bin"
    }
  ],
  "materials": [
    {
      "doubleSided": true,
      "name": "Rubber",
      "pbrMetallicRoughness": {
        "baseColorFactor": [
          0.0398572,
          0.0398572,
          0.0398572,
          1.0
        ],
        "metallicFactor": 0.0,
        "roughnessFactor": 0.7360022430544549
      }
    },
    {
      "doubleSided": true,
      "name": "Silver",
      "pbrMetallicRoughness": {
        "baseColorFactor": [
          0.586593,
          0.586593,
          0.586593,
          1.0
        ],
        "roughnessFactor": 0.415094
      }
    },
    {
      "alphaMode": "BLEND",
      "doubleSided": true,
      "name": "Glass2",
      "pbrMetallicRoughness": {
        "baseColorFactor": [
          0.8,
          0.8,
          0.8,
          0.20571491265497188
        ],
        "metallicFactor": 0.0
      }
    }
  ],
  "meshes": [
    {
      "name": "Object_0",
      "primitives": [
        {
          "attributes": {
            "NORMAL": 1,
            "POSITION": 0,
            "TEXCOORD_0": 2
          },
          "indices": 3,
          "material": 0,
          "mode": 4
        }
      ]
    },
    {
      "name": "Object_1",
      "primitives": [
        {
          "attributes": {
            "NORMAL": 5,
            "POSITION": 4,
            "TEXCOORD_0": 6
          },
          "indices": 7,
          "material": 1,
          "mode": 4
        }
      ]
    },
    {
      "name": "Object_2",
      "primitives": [
        {
          "attributes": {
            "NORMAL": 9,
            "POSITION": 8,
            "TEXCOORD_0": 10
          },
          "indices": 11,
          "material": 2,
          "mode": 4
        }
      ]
    }
  ],
  "nodes": [
    {
      "children": [
        1
      ],
      "matrix": [
        0.45695924758911133,
        0.0,
        0.0,
        0.0,
        0.0,
        1.0146533559776379e-16,
        -0.45695924758911133,
        0.0,
        0.0,
        0.45695924758911133,
        1.0146533559776379e-16,
        0.0,
        0.0,
        0.0,
        0.0,
        1.0
      ],
      "name": "Sketchfab_model"
    },
    {
      "children": [
        2
      ],
      "name": "root"
    },
    {
      "children": [
        3
      ],
      "matrix": [
        1.0,
        0.0,
        0.0,
        0.0,
        0.0,
        2.220446049250313e-16,
        1.0,
        0.0,
        0.0,
        -1.0,
        2.220446049250313e-16,
        0.0,
        0.0,
        0.0,
        0.0,
        1.0
      ],
      "name": "GLTF_SceneRootNode"
    },
    {
      "children": [
        4,
        5,
        6
      ],
      "matrix": [
        1.0,
        0.0,
        -0.0,
        0.0,
        -0.0,
        0.7929570081013161,
        -0.6092775913350246,
        0.0,
        0.0,
        0.6092775913350246,
        0.7929570081013161,
        0.0,
        0.0,
        0.0,
        0.0,
        1.0
      ],
      "name": "Magnifying Glass_0"
    },
    {
      "mesh": 0,
      "name": "Object_4"
    },
    {
      "mesh": 1,
      "name": "Object_5"
    },
    {
      "mesh": 2,
      "name": "Object_6"
    }
  ],
  "scene": 0,
  "scenes": [
    {
      "name": "Sketchfab_Scene",
      "nodes": [
        0
      ]
    }
  ]
}
