<svg width="833" height="278" viewBox="0 0 833 278" fill="none" xmlns="http://www.w3.org/2000/svg">
<rect x="0.5" y="0.5" width="832" height="277" rx="59.5" fill="#232323" stroke="url(#paint0_linear_63_80)" stroke-linejoin="round"/>
<path d="M274.898 162.48C274.725 161.373 274.351 160.54 273.778 159.98C273.218 159.42 272.471 159.133 271.538 159.12C270.845 159.12 270.238 159.28 269.718 159.6C269.198 159.92 268.765 160.347 268.418 160.88C268.085 161.413 267.831 162.02 267.658 162.7C267.498 163.38 267.418 164.08 267.418 164.8C267.418 165.947 267.578 166.967 267.898 167.86C268.231 168.74 268.711 169.433 269.338 169.94C269.965 170.447 270.725 170.7 271.618 170.7C272.458 170.7 273.291 170.487 274.118 170.06C274.945 169.62 275.638 169.013 276.198 168.24L277.158 169.12C276.505 170.013 275.818 170.693 275.098 171.16C274.378 171.613 273.671 171.92 272.978 172.08C272.298 172.24 271.685 172.32 271.138 172.32C270.111 172.32 269.178 172.14 268.338 171.78C267.498 171.407 266.771 170.9 266.158 170.26C265.558 169.607 265.091 168.853 264.758 168C264.438 167.133 264.278 166.2 264.278 165.2C264.278 164.293 264.425 163.393 264.718 162.5C265.011 161.607 265.445 160.8 266.018 160.08C266.605 159.347 267.338 158.767 268.218 158.34C269.098 157.9 270.118 157.68 271.278 157.68C271.798 157.68 272.365 157.767 272.978 157.94C273.605 158.1 274.191 158.34 274.738 158.66L274.658 157.82H276.198V162.48H274.898ZM277.848 170.7C278.221 170.7 278.488 170.627 278.648 170.48C278.821 170.333 278.928 170.127 278.968 169.86C279.008 169.58 279.028 169.267 279.028 168.92V160.7C279.028 160.46 279.034 160.187 279.048 159.88C279.061 159.56 279.081 159.253 279.108 158.96C278.894 158.973 278.641 158.987 278.348 159C278.068 159 277.854 159.007 277.708 159.02V157.5C278.334 157.5 278.854 157.467 279.268 157.4C279.694 157.333 280.028 157.253 280.268 157.16C280.521 157.067 280.694 156.98 280.788 156.9H281.868V168.78C281.868 168.967 281.861 169.233 281.848 169.58C281.834 169.913 281.814 170.233 281.788 170.54C282.014 170.513 282.254 170.5 282.508 170.5C282.761 170.487 282.954 170.48 283.088 170.48V172H277.848V170.7ZM284.398 170.7C284.771 170.7 285.038 170.627 285.198 170.48C285.358 170.333 285.458 170.127 285.498 169.86C285.551 169.58 285.578 169.267 285.578 168.92V165.6C285.578 165.36 285.585 165.087 285.598 164.78C285.611 164.46 285.631 164.153 285.658 163.86C285.445 163.873 285.191 163.887 284.898 163.9C284.618 163.9 284.405 163.907 284.258 163.92V162.4C284.871 162.4 285.391 162.367 285.818 162.3C286.245 162.233 286.578 162.153 286.818 162.06C287.071 161.967 287.245 161.88 287.338 161.8H288.418V168.78C288.418 168.967 288.411 169.233 288.398 169.58C288.385 169.913 288.365 170.233 288.338 170.54C288.551 170.513 288.785 170.5 289.038 170.5C289.305 170.487 289.505 170.48 289.638 170.48V172H284.398V170.7ZM286.898 160.22C286.445 160.22 286.071 160.06 285.778 159.74C285.485 159.42 285.338 159.033 285.338 158.58C285.338 158.127 285.491 157.74 285.798 157.42C286.105 157.1 286.465 156.94 286.878 156.94C287.305 156.94 287.658 157.1 287.938 157.42C288.231 157.74 288.378 158.127 288.378 158.58C288.378 159.033 288.245 159.42 287.978 159.74C287.711 160.06 287.351 160.22 286.898 160.22ZM295.661 172.32C294.768 172.32 293.948 172.12 293.201 171.72C292.454 171.32 291.854 170.74 291.401 169.98C290.961 169.22 290.741 168.3 290.741 167.22C290.741 166.46 290.868 165.747 291.121 165.08C291.374 164.413 291.728 163.827 292.181 163.32C292.648 162.813 293.194 162.413 293.821 162.12C294.461 161.827 295.168 161.68 295.941 161.68C296.794 161.68 297.501 161.813 298.061 162.08C298.634 162.333 299.061 162.673 299.341 163.1C299.634 163.513 299.781 163.953 299.781 164.42C299.781 164.807 299.661 165.153 299.421 165.46C299.194 165.753 298.868 165.907 298.441 165.92C297.934 165.933 297.581 165.793 297.381 165.5C297.181 165.193 297.081 164.9 297.081 164.62C297.081 164.5 297.101 164.36 297.141 164.2C297.181 164.027 297.241 163.873 297.321 163.74C297.228 163.54 297.088 163.393 296.901 163.3C296.714 163.207 296.521 163.147 296.321 163.12C296.134 163.08 295.981 163.067 295.861 163.08C295.221 163.12 294.694 163.44 294.281 164.04C293.868 164.64 293.661 165.507 293.661 166.64C293.661 167.307 293.741 167.933 293.901 168.52C294.074 169.093 294.354 169.567 294.741 169.94C295.128 170.313 295.648 170.513 296.301 170.54C296.861 170.553 297.408 170.42 297.941 170.14C298.474 169.86 298.928 169.48 299.301 169L300.221 169.9C299.741 170.567 299.241 171.073 298.721 171.42C298.201 171.767 297.681 172 297.161 172.12C296.654 172.253 296.154 172.32 295.661 172.32ZM300.973 172V170.7C301.346 170.7 301.613 170.627 301.773 170.48C301.946 170.333 302.053 170.127 302.093 169.86C302.146 169.58 302.173 169.267 302.173 168.92V160.7C302.173 160.46 302.179 160.187 302.193 159.88C302.206 159.56 302.226 159.253 302.253 158.96C302.039 158.973 301.786 158.987 301.493 159C301.213 159 300.999 159.007 300.853 159.02V157.5C301.466 157.5 301.979 157.467 302.393 157.4C302.819 157.333 303.159 157.253 303.413 157.16C303.666 157.067 303.833 156.98 303.913 156.9H305.013V166.02H305.973L307.413 164.36C307.586 164.173 307.726 164.013 307.833 163.88C307.953 163.747 308.073 163.627 308.193 163.52H307.133V162H311.633V163.28C311.166 163.333 310.753 163.447 310.393 163.62C310.033 163.78 309.719 163.973 309.453 164.2C309.199 164.427 308.979 164.647 308.793 164.86L307.513 166.3C307.713 166.393 307.906 166.533 308.093 166.72C308.293 166.893 308.533 167.167 308.813 167.54L310.153 169.3C310.233 169.393 310.333 169.52 310.453 169.68C310.586 169.84 310.733 170 310.893 170.16C311.053 170.307 311.226 170.433 311.413 170.54C311.599 170.647 311.793 170.7 311.993 170.7V172H309.693C309.266 172 308.893 171.853 308.573 171.56C308.253 171.253 307.886 170.82 307.473 170.26C307.233 169.94 306.979 169.6 306.713 169.24C306.459 168.867 306.219 168.52 305.993 168.2C305.779 167.867 305.606 167.607 305.473 167.42L305.013 167.44V168.78C305.013 168.967 305.006 169.233 304.993 169.58C304.979 169.913 304.959 170.233 304.933 170.54C305.146 170.513 305.379 170.5 305.633 170.5C305.886 170.487 306.086 170.48 306.233 170.48V172H300.973ZM322.382 172.32C321.982 172.32 321.595 172.273 321.222 172.18C320.862 172.087 320.528 171.913 320.222 171.66C319.928 171.393 319.695 171.007 319.522 170.5C319.348 169.993 319.262 169.32 319.262 168.48L319.302 163.66H317.942V162C318.355 161.987 318.755 161.847 319.142 161.58C319.528 161.313 319.855 160.967 320.122 160.54C320.402 160.113 320.588 159.667 320.682 159.2H322.162L322.142 162H324.682V163.54L322.142 163.6L322.122 168.52C322.122 168.827 322.148 169.133 322.202 169.44C322.268 169.733 322.388 169.98 322.562 170.18C322.735 170.367 322.988 170.46 323.322 170.46C323.508 170.46 323.762 170.393 324.082 170.26C324.415 170.127 324.768 169.793 325.142 169.26L326.102 170.16C325.742 170.693 325.368 171.107 324.982 171.4C324.595 171.693 324.222 171.907 323.862 172.04C323.515 172.173 323.208 172.253 322.942 172.28C322.675 172.307 322.488 172.32 322.382 172.32ZM331.583 172.32C330.623 172.32 329.757 172.113 328.983 171.7C328.21 171.287 327.597 170.7 327.143 169.94C326.703 169.167 326.483 168.26 326.483 167.22C326.483 166.113 326.71 165.147 327.163 164.32C327.63 163.48 328.243 162.833 329.003 162.38C329.777 161.913 330.617 161.68 331.523 161.68C332.483 161.68 333.343 161.887 334.103 162.3C334.863 162.713 335.463 163.307 335.903 164.08C336.343 164.84 336.563 165.753 336.563 166.82C336.563 167.94 336.35 168.913 335.923 169.74C335.497 170.567 334.91 171.207 334.163 171.66C333.417 172.1 332.557 172.32 331.583 172.32ZM331.663 170.9C332.197 170.887 332.597 170.7 332.863 170.34C333.143 169.98 333.337 169.527 333.443 168.98C333.55 168.433 333.603 167.88 333.603 167.32C333.603 166.827 333.563 166.327 333.483 165.82C333.417 165.313 333.303 164.853 333.143 164.44C332.983 164.027 332.763 163.693 332.483 163.44C332.217 163.187 331.883 163.067 331.483 163.08C330.963 163.093 330.55 163.28 330.243 163.64C329.95 164 329.737 164.453 329.603 165C329.483 165.533 329.423 166.093 329.423 166.68C329.423 167.36 329.497 168.027 329.643 168.68C329.79 169.333 330.023 169.873 330.343 170.3C330.677 170.713 331.117 170.913 331.663 170.9ZM347.405 172.32C346.605 172.32 345.959 172.167 345.465 171.86C344.985 171.553 344.632 171.073 344.405 170.42C344.192 169.767 344.085 168.927 344.085 167.9V165.6C344.085 165.36 344.092 165.087 344.105 164.78C344.119 164.46 344.132 164.153 344.145 163.86C343.932 163.873 343.679 163.887 343.385 163.9C343.105 163.9 342.892 163.907 342.745 163.92V162.4H342.945C343.772 162.4 344.425 162.333 344.905 162.2C345.385 162.067 345.692 161.933 345.825 161.8H346.925V167.92C346.925 168.787 347.039 169.433 347.265 169.86C347.492 170.273 347.852 170.48 348.345 170.48C348.692 170.48 349.039 170.387 349.385 170.2C349.745 170 350.039 169.773 350.265 169.52V165.6C350.265 165.36 350.272 165.087 350.285 164.78C350.299 164.46 350.319 164.153 350.345 163.86C350.132 163.873 349.879 163.887 349.585 163.9C349.305 163.9 349.092 163.907 348.945 163.92V162.4H349.425C350.052 162.4 350.605 162.333 351.085 162.2C351.565 162.053 351.872 161.92 352.005 161.8H353.105V168.78C353.105 168.967 353.099 169.233 353.085 169.58C353.072 169.913 353.052 170.233 353.025 170.54C353.239 170.513 353.472 170.5 353.725 170.5C353.992 170.487 354.192 170.48 354.325 170.48V172H350.525C350.512 171.827 350.492 171.653 350.465 171.48C350.452 171.307 350.432 171.133 350.405 170.96C349.992 171.307 349.545 171.62 349.065 171.9C348.599 172.18 348.045 172.32 347.405 172.32ZM355.429 177.1V175.8C355.802 175.8 356.069 175.727 356.229 175.58C356.402 175.433 356.509 175.22 356.549 174.94C356.602 174.673 356.629 174.367 356.629 174.02V165.56C356.629 165.32 356.635 165.053 356.649 164.76C356.662 164.453 356.682 164.153 356.709 163.86C356.495 163.873 356.242 163.887 355.949 163.9C355.655 163.9 355.435 163.907 355.289 163.92V162.4C355.915 162.4 356.435 162.367 356.849 162.3C357.275 162.233 357.609 162.153 357.849 162.06C358.102 161.967 358.275 161.88 358.369 161.8H359.349C359.375 161.933 359.395 162.1 359.409 162.3C359.422 162.487 359.435 162.64 359.449 162.76C359.915 162.36 360.375 162.08 360.829 161.92C361.295 161.76 361.735 161.68 362.149 161.68C362.949 161.68 363.649 161.887 364.249 162.3C364.862 162.713 365.335 163.3 365.669 164.06C366.015 164.82 366.189 165.713 366.189 166.74C366.189 167.807 365.982 168.767 365.569 169.62C365.155 170.46 364.575 171.12 363.829 171.6C363.095 172.08 362.229 172.32 361.229 172.32C360.869 172.32 360.542 172.28 360.249 172.2C359.969 172.133 359.702 172.053 359.449 171.96V173.88C359.449 174.067 359.442 174.327 359.429 174.66C359.429 175.007 359.415 175.333 359.389 175.64C359.602 175.613 359.835 175.593 360.089 175.58C360.342 175.58 360.535 175.58 360.669 175.58V177.1H355.429ZM360.909 170.82C361.522 170.807 361.995 170.627 362.329 170.28C362.675 169.92 362.915 169.453 363.049 168.88C363.182 168.307 363.249 167.693 363.249 167.04C363.249 166.427 363.175 165.847 363.029 165.3C362.882 164.753 362.649 164.313 362.329 163.98C362.009 163.633 361.589 163.467 361.069 163.48C360.735 163.493 360.429 163.58 360.149 163.74C359.869 163.887 359.635 164.093 359.449 164.36C359.449 164.773 359.449 165.187 359.449 165.6C359.449 166 359.449 166.4 359.449 166.8C359.449 167.2 359.449 167.607 359.449 168.02C359.449 168.42 359.449 168.827 359.449 169.24C359.449 169.64 359.449 170.047 359.449 170.46C359.595 170.553 359.802 170.64 360.069 170.72C360.335 170.8 360.615 170.833 360.909 170.82ZM367.242 170.7C367.616 170.7 367.882 170.627 368.042 170.48C368.216 170.333 368.322 170.127 368.362 169.86C368.402 169.58 368.422 169.267 368.422 168.92V160.7C368.422 160.46 368.429 160.187 368.442 159.88C368.456 159.56 368.476 159.253 368.502 158.96C368.289 158.973 368.036 158.987 367.742 159C367.462 159 367.249 159.007 367.102 159.02V157.5C367.729 157.5 368.249 157.467 368.662 157.4C369.089 157.333 369.422 157.253 369.662 157.16C369.916 157.067 370.089 156.98 370.182 156.9H371.262V168.78C371.262 168.967 371.256 169.233 371.242 169.58C371.229 169.913 371.209 170.233 371.182 170.54C371.409 170.513 371.649 170.5 371.902 170.5C372.156 170.487 372.349 170.48 372.482 170.48V172H367.242V170.7ZM378.693 172.32C377.733 172.32 376.866 172.113 376.093 171.7C375.319 171.287 374.706 170.7 374.253 169.94C373.813 169.167 373.593 168.26 373.593 167.22C373.593 166.113 373.819 165.147 374.273 164.32C374.739 163.48 375.353 162.833 376.113 162.38C376.886 161.913 377.726 161.68 378.633 161.68C379.593 161.68 380.453 161.887 381.213 162.3C381.973 162.713 382.573 163.307 383.013 164.08C383.453 164.84 383.673 165.753 383.673 166.82C383.673 167.94 383.459 168.913 383.033 169.74C382.606 170.567 382.019 171.207 381.273 171.66C380.526 172.1 379.666 172.32 378.693 172.32ZM378.773 170.9C379.306 170.887 379.706 170.7 379.973 170.34C380.253 169.98 380.446 169.527 380.553 168.98C380.659 168.433 380.713 167.88 380.713 167.32C380.713 166.827 380.673 166.327 380.593 165.82C380.526 165.313 380.413 164.853 380.253 164.44C380.093 164.027 379.873 163.693 379.593 163.44C379.326 163.187 378.993 163.067 378.593 163.08C378.073 163.093 377.659 163.28 377.353 163.64C377.059 164 376.846 164.453 376.713 165C376.593 165.533 376.533 166.093 376.533 166.68C376.533 167.36 376.606 168.027 376.753 168.68C376.899 169.333 377.133 169.873 377.453 170.3C377.786 170.713 378.226 170.913 378.773 170.9ZM390.681 172C390.654 171.813 390.634 171.66 390.621 171.54C390.621 171.407 390.614 171.253 390.601 171.08C390.147 171.533 389.667 171.853 389.161 172.04C388.654 172.227 388.141 172.32 387.621 172.32C386.767 172.32 386.101 172.067 385.621 171.56C385.141 171.053 384.901 170.42 384.901 169.66C384.901 169.02 385.061 168.473 385.381 168.02C385.714 167.567 386.147 167.2 386.681 166.92C387.227 166.627 387.827 166.407 388.481 166.26C389.147 166.1 389.814 166.007 390.481 165.98V164.94C390.481 164.593 390.434 164.28 390.341 164C390.261 163.72 390.114 163.5 389.901 163.34C389.701 163.18 389.414 163.107 389.041 163.12C388.787 163.133 388.541 163.187 388.301 163.28C388.061 163.373 387.854 163.507 387.681 163.68C387.787 163.8 387.854 163.933 387.881 164.08C387.907 164.213 387.921 164.333 387.921 164.44C387.921 164.707 387.814 164.987 387.601 165.28C387.387 165.56 387.047 165.693 386.581 165.68C386.181 165.667 385.874 165.527 385.661 165.26C385.447 164.993 385.341 164.68 385.341 164.32C385.341 163.787 385.527 163.327 385.901 162.94C386.287 162.54 386.801 162.233 387.441 162.02C388.081 161.793 388.787 161.68 389.561 161.68C390.734 161.68 391.641 161.987 392.281 162.6C392.934 163.2 393.261 164.167 393.261 165.5C393.261 165.953 393.261 166.34 393.261 166.66C393.261 166.98 393.254 167.3 393.241 167.62C393.241 167.94 393.241 168.327 393.241 168.78C393.241 168.967 393.234 169.233 393.221 169.58C393.207 169.913 393.187 170.233 393.161 170.54C393.387 170.513 393.627 170.5 393.881 170.5C394.134 170.487 394.327 170.48 394.461 170.48V172H390.681ZM390.461 167.4C390.087 167.44 389.734 167.507 389.401 167.6C389.067 167.693 388.774 167.82 388.521 167.98C388.281 168.14 388.087 168.333 387.941 168.56C387.807 168.787 387.741 169.04 387.741 169.32C387.754 169.693 387.874 169.96 388.101 170.12C388.327 170.28 388.587 170.36 388.881 170.36C389.187 170.36 389.474 170.293 389.741 170.16C390.007 170.027 390.247 169.853 390.461 169.64C390.461 169.507 390.461 169.38 390.461 169.26C390.461 169.127 390.461 168.993 390.461 168.86C390.461 168.62 390.461 168.38 390.461 168.14C390.461 167.887 390.461 167.64 390.461 167.4ZM399.469 172.32C398.669 172.32 397.962 172.113 397.349 171.7C396.749 171.287 396.276 170.7 395.929 169.94C395.596 169.18 395.429 168.287 395.429 167.26C395.429 166.18 395.636 165.22 396.049 164.38C396.462 163.54 397.042 162.88 397.789 162.4C398.536 161.92 399.402 161.68 400.389 161.68C400.749 161.68 401.069 161.72 401.349 161.8C401.642 161.867 401.916 161.947 402.169 162.04V160.72C402.169 160.533 402.176 160.267 402.189 159.92C402.202 159.573 402.222 159.253 402.249 158.96C402.036 158.973 401.782 158.987 401.489 159C401.196 159.013 400.976 159.02 400.829 159.02V157.5C401.456 157.5 401.976 157.467 402.389 157.4C402.816 157.333 403.149 157.253 403.389 157.16C403.642 157.067 403.816 156.98 403.909 156.9H404.989V168.78C404.989 168.967 404.982 169.233 404.969 169.58C404.956 169.913 404.936 170.233 404.909 170.54C405.136 170.513 405.376 170.5 405.629 170.5C405.882 170.487 406.076 170.48 406.209 170.48V172H402.409C402.396 171.853 402.376 171.7 402.349 171.54C402.336 171.38 402.316 171.227 402.289 171.08C401.849 171.533 401.396 171.853 400.929 172.04C400.462 172.227 399.976 172.32 399.469 172.32ZM400.509 170.5C400.856 170.5 401.176 170.413 401.469 170.24C401.762 170.053 401.996 169.82 402.169 169.54C402.169 169.34 402.169 169.14 402.169 168.94C402.169 168.74 402.169 168.54 402.169 168.34V163.54C402.036 163.433 401.836 163.347 401.569 163.28C401.302 163.2 401.029 163.16 400.749 163.16C400.136 163.173 399.656 163.367 399.309 163.74C398.962 164.113 398.716 164.587 398.569 165.16C398.436 165.733 398.369 166.333 398.369 166.96C398.369 167.52 398.436 168.073 398.569 168.62C398.716 169.167 398.942 169.62 399.249 169.98C399.569 170.327 399.989 170.5 400.509 170.5ZM417.797 172.32C416.864 172.32 416.017 172.107 415.257 171.68C414.497 171.24 413.89 170.64 413.437 169.88C412.997 169.107 412.777 168.227 412.777 167.24C412.777 166.187 412.997 165.24 413.437 164.4C413.877 163.56 414.477 162.9 415.237 162.42C415.997 161.927 416.85 161.68 417.797 161.68C418.73 161.68 419.577 161.907 420.337 162.36C421.097 162.8 421.704 163.4 422.157 164.16C422.61 164.92 422.837 165.787 422.837 166.76C422.837 167.787 422.61 168.727 422.157 169.58C421.717 170.42 421.117 171.087 420.357 171.58C419.597 172.073 418.744 172.32 417.797 172.32ZM417.957 171.52C418.664 171.52 419.224 171.32 419.637 170.92C420.05 170.52 420.344 170 420.517 169.36C420.704 168.72 420.797 168.047 420.797 167.34C420.797 166.74 420.737 166.153 420.617 165.58C420.51 164.993 420.337 164.467 420.097 164C419.857 163.52 419.544 163.14 419.157 162.86C418.784 162.58 418.33 162.44 417.797 162.44C417.104 162.44 416.537 162.64 416.097 163.04C415.657 163.44 415.33 163.96 415.117 164.6C414.917 165.24 414.817 165.927 414.817 166.66C414.817 167.487 414.93 168.273 415.157 169.02C415.384 169.753 415.73 170.353 416.197 170.82C416.664 171.287 417.25 171.52 417.957 171.52ZM424.536 171.4C424.95 171.4 425.236 171.3 425.396 171.1C425.556 170.887 425.65 170.6 425.676 170.24C425.703 169.867 425.716 169.44 425.716 168.96V164.4C425.716 164.187 425.716 163.973 425.716 163.76C425.73 163.547 425.756 163.327 425.796 163.1C425.556 163.113 425.316 163.127 425.076 163.14C424.85 163.14 424.616 163.147 424.376 163.16V162.34H424.996C425.57 162.34 425.963 162.287 426.176 162.18C426.403 162.06 426.59 161.933 426.736 161.8H427.316C427.343 162.013 427.363 162.28 427.376 162.6C427.39 162.907 427.403 163.3 427.416 163.78C427.616 163.447 427.89 163.12 428.236 162.8C428.583 162.48 428.97 162.213 429.396 162C429.836 161.787 430.296 161.68 430.776 161.68C431.15 161.68 431.476 161.78 431.756 161.98C432.036 162.18 432.176 162.5 432.176 162.94C432.176 163.047 432.143 163.18 432.076 163.34C432.01 163.487 431.903 163.62 431.756 163.74C431.61 163.847 431.416 163.9 431.176 163.9C430.883 163.887 430.65 163.773 430.476 163.56C430.303 163.333 430.236 163.073 430.276 162.78C429.943 162.767 429.596 162.853 429.236 163.04C428.89 163.227 428.563 163.487 428.256 163.82C427.95 164.14 427.676 164.52 427.436 164.96L427.456 169.88C427.456 170.147 427.45 170.387 427.436 170.6C427.436 170.8 427.416 171.013 427.376 171.24C427.59 171.227 427.796 171.22 427.996 171.22C428.21 171.207 428.423 171.193 428.636 171.18V172H424.536V171.4ZM442.723 172.32C441.909 172.32 441.176 172.12 440.523 171.72C439.869 171.307 439.349 170.72 438.963 169.96C438.589 169.2 438.403 168.307 438.403 167.28C438.403 166.187 438.623 165.22 439.063 164.38C439.503 163.54 440.109 162.88 440.883 162.4C441.669 161.92 442.556 161.68 443.543 161.68C443.983 161.68 444.416 161.74 444.843 161.86C445.283 161.967 445.629 162.093 445.883 162.24V159.5C445.883 159.287 445.883 159.087 445.883 158.9C445.896 158.7 445.916 158.467 445.943 158.2C445.703 158.213 445.463 158.227 445.223 158.24C444.996 158.253 444.763 158.267 444.523 158.28V157.44C445.109 157.44 445.563 157.413 445.883 157.36C446.203 157.307 446.443 157.24 446.603 157.16C446.776 157.08 446.909 156.993 447.003 156.9H447.583V169.88C447.583 170.093 447.576 170.307 447.562 170.52C447.549 170.733 447.529 170.973 447.503 171.24C447.743 171.227 447.976 171.213 448.203 171.2C448.443 171.187 448.683 171.173 448.923 171.16V172H446.063C446.023 171.8 445.989 171.62 445.963 171.46C445.949 171.287 445.936 171.12 445.923 170.96C445.549 171.373 445.089 171.707 444.543 171.96C443.996 172.2 443.389 172.32 442.723 172.32ZM443.442 171.34C443.883 171.34 444.323 171.213 444.763 170.96C445.216 170.707 445.589 170.393 445.883 170.02C445.869 169.86 445.863 169.693 445.863 169.52C445.863 169.333 445.863 169.133 445.863 168.92L445.883 163.16C445.563 162.92 445.209 162.747 444.823 162.64C444.449 162.52 444.063 162.46 443.663 162.46C442.996 162.46 442.416 162.653 441.923 163.04C441.429 163.427 441.056 163.967 440.803 164.66C440.549 165.353 440.436 166.167 440.463 167.1C440.489 167.913 440.616 168.64 440.843 169.28C441.083 169.92 441.416 170.427 441.843 170.8C442.283 171.16 442.816 171.34 443.442 171.34ZM450.396 171.4C450.809 171.4 451.096 171.3 451.256 171.1C451.416 170.887 451.509 170.6 451.536 170.24C451.562 169.867 451.576 169.44 451.576 168.96V164.4C451.576 164.187 451.576 163.973 451.576 163.76C451.589 163.547 451.616 163.327 451.656 163.1C451.416 163.113 451.176 163.127 450.936 163.14C450.709 163.14 450.476 163.147 450.236 163.16V162.34H450.856C451.429 162.34 451.822 162.287 452.036 162.18C452.262 162.06 452.449 161.933 452.596 161.8H453.176C453.202 162.013 453.222 162.28 453.236 162.6C453.249 162.907 453.262 163.3 453.276 163.78C453.476 163.447 453.749 163.12 454.096 162.8C454.442 162.48 454.829 162.213 455.256 162C455.696 161.787 456.156 161.68 456.636 161.68C457.009 161.68 457.336 161.78 457.616 161.98C457.896 162.18 458.036 162.5 458.036 162.94C458.036 163.047 458.002 163.18 457.936 163.34C457.869 163.487 457.762 163.62 457.616 163.74C457.469 163.847 457.276 163.9 457.036 163.9C456.742 163.887 456.509 163.773 456.336 163.56C456.162 163.333 456.096 163.073 456.136 162.78C455.802 162.767 455.456 162.853 455.096 163.04C454.749 163.227 454.422 163.487 454.116 163.82C453.809 164.14 453.536 164.52 453.296 164.96L453.316 169.88C453.316 170.147 453.309 170.387 453.296 170.6C453.296 170.8 453.276 171.013 453.236 171.24C453.449 171.227 453.656 171.22 453.856 171.22C454.069 171.207 454.282 171.193 454.496 171.18V172H450.396V171.4ZM464.991 172C464.951 171.773 464.925 171.573 464.911 171.4C464.898 171.227 464.878 171.047 464.851 170.86C464.398 171.313 463.905 171.673 463.371 171.94C462.851 172.193 462.298 172.32 461.711 172.32C460.698 172.32 459.945 172.093 459.451 171.64C458.958 171.173 458.711 170.607 458.711 169.94C458.711 169.327 458.898 168.8 459.271 168.36C459.658 167.907 460.151 167.54 460.751 167.26C461.365 166.967 462.025 166.753 462.731 166.62C463.451 166.473 464.145 166.407 464.811 166.42V165.18C464.811 164.713 464.771 164.273 464.691 163.86C464.611 163.447 464.438 163.107 464.171 162.84C463.905 162.573 463.478 162.433 462.891 162.42C462.505 162.407 462.105 162.48 461.691 162.64C461.291 162.8 460.998 163.073 460.811 163.46C460.918 163.567 460.985 163.693 461.011 163.84C461.051 163.973 461.071 164.1 461.071 164.22C461.071 164.38 461.005 164.567 460.871 164.78C460.738 164.98 460.505 165.073 460.171 165.06C459.891 165.06 459.678 164.967 459.531 164.78C459.385 164.58 459.311 164.347 459.311 164.08C459.311 163.627 459.478 163.22 459.811 162.86C460.158 162.5 460.631 162.213 461.231 162C461.831 161.787 462.511 161.68 463.271 161.68C464.391 161.68 465.218 161.98 465.751 162.58C466.285 163.167 466.545 164.1 466.531 165.38C466.531 165.873 466.531 166.373 466.531 166.88C466.531 167.373 466.525 167.873 466.511 168.38C466.511 168.873 466.511 169.373 466.511 169.88C466.511 170.093 466.505 170.307 466.491 170.52C466.478 170.733 466.458 170.973 466.431 171.24C466.671 171.227 466.905 171.213 467.131 171.2C467.371 171.187 467.611 171.173 467.851 171.16V172H464.991ZM464.811 167.1C464.358 167.113 463.878 167.173 463.371 167.28C462.878 167.373 462.418 167.52 461.991 167.72C461.578 167.92 461.238 168.187 460.971 168.52C460.718 168.84 460.598 169.233 460.611 169.7C460.638 170.193 460.798 170.567 461.091 170.82C461.398 171.06 461.758 171.18 462.171 171.18C462.718 171.18 463.191 171.08 463.591 170.88C464.005 170.667 464.411 170.373 464.811 170C464.798 169.853 464.791 169.693 464.791 169.52C464.791 169.347 464.791 169.167 464.791 168.98C464.791 168.913 464.791 168.7 464.791 168.34C464.805 167.98 464.811 167.567 464.811 167.1ZM474.044 177.42C472.844 177.42 471.877 177.287 471.144 177.02C470.41 176.753 469.877 176.413 469.544 176C469.21 175.587 469.044 175.16 469.044 174.72C469.044 174.307 469.137 173.94 469.324 173.62C469.524 173.313 469.764 173.047 470.044 172.82C470.337 172.593 470.617 172.427 470.884 172.32C470.457 172.173 470.117 171.98 469.864 171.74C469.624 171.487 469.504 171.153 469.504 170.74C469.504 170.273 469.69 169.84 470.064 169.44C470.437 169.027 470.917 168.773 471.504 168.68C470.89 168.387 470.397 167.98 470.024 167.46C469.664 166.94 469.484 166.333 469.484 165.64C469.484 164.84 469.69 164.147 470.104 163.56C470.517 162.96 471.044 162.5 471.684 162.18C472.337 161.847 473.01 161.68 473.704 161.68C474.144 161.68 474.584 161.747 475.024 161.88C475.464 162 475.87 162.18 476.244 162.42C476.377 162.047 476.564 161.713 476.804 161.42C477.057 161.127 477.344 160.9 477.664 160.74C477.984 160.567 478.317 160.48 478.664 160.48C479.01 160.48 479.27 160.573 479.444 160.76C479.63 160.933 479.724 161.173 479.724 161.48C479.724 161.573 479.697 161.687 479.644 161.82C479.59 161.953 479.497 162.067 479.364 162.16C479.244 162.253 479.077 162.3 478.864 162.3C478.637 162.3 478.45 162.233 478.304 162.1C478.157 161.967 478.064 161.8 478.024 161.6C477.69 161.653 477.43 161.813 477.244 162.08C477.057 162.333 476.93 162.613 476.864 162.92C477.184 163.213 477.437 163.567 477.624 163.98C477.824 164.393 477.924 164.833 477.924 165.3C477.924 166.047 477.724 166.713 477.324 167.3C476.937 167.887 476.424 168.347 475.784 168.68C475.144 169 474.45 169.16 473.704 169.16C473.45 169.16 473.23 169.147 473.044 169.12C472.857 169.08 472.63 169.06 472.364 169.06C471.87 169.06 471.47 169.18 471.164 169.42C470.857 169.66 470.75 169.947 470.844 170.28C470.95 170.6 471.277 170.807 471.824 170.9C472.37 170.98 473.104 171.04 474.024 171.08C475.05 171.12 475.93 171.24 476.664 171.44C477.397 171.64 477.957 171.947 478.344 172.36C478.744 172.787 478.944 173.36 478.944 174.08C478.944 174.613 478.797 175.087 478.504 175.5C478.224 175.927 477.844 176.28 477.364 176.56C476.897 176.84 476.37 177.053 475.784 177.2C475.21 177.347 474.63 177.42 474.044 177.42ZM474.024 176.64C475.17 176.64 476.064 176.427 476.704 176C477.344 175.573 477.664 175.073 477.664 174.5C477.664 174.007 477.497 173.627 477.164 173.36C476.83 173.107 476.377 172.927 475.804 172.82C475.23 172.727 474.57 172.673 473.824 172.66C473.464 172.647 473.11 172.627 472.764 172.6C472.417 172.587 472.084 172.553 471.764 172.5C471.404 172.74 471.124 173.033 470.924 173.38C470.724 173.727 470.624 174.093 470.624 174.48C470.624 175.133 470.93 175.653 471.544 176.04C472.17 176.44 472.997 176.64 474.024 176.64ZM473.764 168.44C474.257 168.44 474.664 168.32 474.984 168.08C475.317 167.84 475.564 167.513 475.724 167.1C475.897 166.687 475.984 166.22 475.984 165.7C475.984 165.113 475.897 164.567 475.724 164.06C475.55 163.553 475.29 163.147 474.944 162.84C474.61 162.533 474.184 162.38 473.664 162.38C472.944 162.38 472.384 162.653 471.984 163.2C471.597 163.733 471.404 164.4 471.404 165.2C471.404 165.84 471.497 166.407 471.684 166.9C471.87 167.38 472.137 167.76 472.484 168.04C472.844 168.307 473.27 168.44 473.764 168.44ZM491.612 172C491.572 171.773 491.546 171.573 491.532 171.4C491.519 171.227 491.499 171.047 491.472 170.86C491.019 171.313 490.526 171.673 489.992 171.94C489.472 172.193 488.919 172.32 488.332 172.32C487.319 172.32 486.566 172.093 486.072 171.64C485.579 171.173 485.332 170.607 485.332 169.94C485.332 169.327 485.519 168.8 485.892 168.36C486.279 167.907 486.772 167.54 487.372 167.26C487.986 166.967 488.646 166.753 489.352 166.62C490.072 166.473 490.766 166.407 491.432 166.42V165.18C491.432 164.713 491.392 164.273 491.312 163.86C491.232 163.447 491.059 163.107 490.792 162.84C490.526 162.573 490.099 162.433 489.512 162.42C489.126 162.407 488.726 162.48 488.312 162.64C487.912 162.8 487.619 163.073 487.432 163.46C487.539 163.567 487.606 163.693 487.632 163.84C487.672 163.973 487.692 164.1 487.692 164.22C487.692 164.38 487.626 164.567 487.492 164.78C487.359 164.98 487.126 165.073 486.792 165.06C486.512 165.06 486.299 164.967 486.152 164.78C486.006 164.58 485.932 164.347 485.932 164.08C485.932 163.627 486.099 163.22 486.432 162.86C486.779 162.5 487.252 162.213 487.852 162C488.452 161.787 489.132 161.68 489.892 161.68C491.012 161.68 491.839 161.98 492.372 162.58C492.906 163.167 493.166 164.1 493.152 165.38C493.152 165.873 493.152 166.373 493.152 166.88C493.152 167.373 493.146 167.873 493.132 168.38C493.132 168.873 493.132 169.373 493.132 169.88C493.132 170.093 493.126 170.307 493.112 170.52C493.099 170.733 493.079 170.973 493.052 171.24C493.292 171.227 493.526 171.213 493.752 171.2C493.992 171.187 494.232 171.173 494.472 171.16V172H491.612ZM491.432 167.1C490.979 167.113 490.499 167.173 489.992 167.28C489.499 167.373 489.039 167.52 488.612 167.72C488.199 167.92 487.859 168.187 487.592 168.52C487.339 168.84 487.219 169.233 487.232 169.7C487.259 170.193 487.419 170.567 487.712 170.82C488.019 171.06 488.379 171.18 488.792 171.18C489.339 171.18 489.812 171.08 490.212 170.88C490.626 170.667 491.032 170.373 491.432 170C491.419 169.853 491.412 169.693 491.412 169.52C491.412 169.347 491.412 169.167 491.412 168.98C491.412 168.913 491.412 168.7 491.412 168.34C491.426 167.98 491.432 167.567 491.432 167.1ZM495.845 172V171.4C496.258 171.4 496.545 171.3 496.705 171.1C496.865 170.887 496.958 170.6 496.985 170.24C497.012 169.867 497.025 169.44 497.025 168.96L497.045 164.4C497.045 164.187 497.045 163.973 497.045 163.76C497.058 163.547 497.085 163.327 497.125 163.1C496.885 163.113 496.645 163.127 496.405 163.14C496.178 163.153 495.945 163.167 495.705 163.18V162.34C496.292 162.34 496.732 162.313 497.025 162.26C497.332 162.207 497.558 162.14 497.705 162.06C497.852 161.98 497.972 161.893 498.065 161.8H498.645C498.658 161.893 498.665 162 498.665 162.12C498.678 162.24 498.692 162.373 498.705 162.52C498.718 162.667 498.725 162.833 498.725 163.02C499.018 162.767 499.338 162.54 499.685 162.34C500.045 162.14 500.418 161.98 500.805 161.86C501.205 161.74 501.598 161.68 501.985 161.68C503.145 161.68 503.992 162.047 504.525 162.78C505.058 163.5 505.325 164.627 505.325 166.16V169.88C505.325 170.147 505.318 170.387 505.305 170.6C505.305 170.8 505.285 171.013 505.245 171.24C505.458 171.227 505.665 171.22 505.865 171.22C506.078 171.207 506.292 171.193 506.505 171.18V172H502.425V171.4C502.838 171.4 503.125 171.3 503.285 171.1C503.445 170.887 503.538 170.6 503.565 170.24C503.592 169.867 503.605 169.44 503.605 168.96V166.16C503.592 165.013 503.398 164.147 503.025 163.56C502.665 162.973 502.092 162.687 501.305 162.7C500.825 162.713 500.352 162.84 499.885 163.08C499.432 163.32 499.052 163.627 498.745 164C498.758 164.107 498.765 164.227 498.765 164.36C498.765 164.493 498.765 164.633 498.765 164.78L498.745 169.88C498.745 170.147 498.738 170.387 498.725 170.6C498.725 170.8 498.705 171.013 498.665 171.24C498.878 171.227 499.085 171.22 499.285 171.22C499.498 171.207 499.712 171.193 499.925 171.18V172H495.845ZM512.273 172.32C511.46 172.32 510.727 172.12 510.073 171.72C509.42 171.307 508.9 170.72 508.513 169.96C508.14 169.2 507.953 168.307 507.953 167.28C507.953 166.187 508.173 165.22 508.613 164.38C509.053 163.54 509.66 162.88 510.433 162.4C511.22 161.92 512.107 161.68 513.093 161.68C513.533 161.68 513.967 161.74 514.393 161.86C514.833 161.967 515.18 162.093 515.433 162.24V159.5C515.433 159.287 515.433 159.087 515.433 158.9C515.447 158.7 515.467 158.467 515.493 158.2C515.253 158.213 515.013 158.227 514.773 158.24C514.547 158.253 514.313 158.267 514.073 158.28V157.44C514.66 157.44 515.113 157.413 515.433 157.36C515.753 157.307 515.993 157.24 516.153 157.16C516.327 157.08 516.46 156.993 516.553 156.9H517.133V169.88C517.133 170.093 517.127 170.307 517.113 170.52C517.1 170.733 517.08 170.973 517.053 171.24C517.293 171.227 517.527 171.213 517.753 171.2C517.993 171.187 518.233 171.173 518.473 171.16V172H515.613C515.573 171.8 515.54 171.62 515.513 171.46C515.5 171.287 515.487 171.12 515.473 170.96C515.1 171.373 514.64 171.707 514.093 171.96C513.547 172.2 512.94 172.32 512.273 172.32ZM512.993 171.34C513.433 171.34 513.873 171.213 514.313 170.96C514.767 170.707 515.14 170.393 515.433 170.02C515.42 169.86 515.413 169.693 515.413 169.52C515.413 169.333 515.413 169.133 515.413 168.92L515.433 163.16C515.113 162.92 514.76 162.747 514.373 162.64C514 162.52 513.613 162.46 513.213 162.46C512.547 162.46 511.967 162.653 511.473 163.04C510.98 163.427 510.607 163.967 510.353 164.66C510.1 165.353 509.987 166.167 510.013 167.1C510.04 167.913 510.167 168.64 510.393 169.28C510.633 169.92 510.967 170.427 511.393 170.8C511.833 171.16 512.367 171.34 512.993 171.34ZM529.48 172.32C528.667 172.32 527.934 172.12 527.28 171.72C526.627 171.307 526.107 170.72 525.72 169.96C525.347 169.2 525.16 168.307 525.16 167.28C525.16 166.187 525.38 165.22 525.82 164.38C526.26 163.54 526.867 162.88 527.64 162.4C528.427 161.92 529.314 161.68 530.3 161.68C530.74 161.68 531.174 161.74 531.6 161.86C532.04 161.967 532.387 162.093 532.64 162.24V159.5C532.64 159.287 532.64 159.087 532.64 158.9C532.654 158.7 532.674 158.467 532.7 158.2C532.46 158.213 532.22 158.227 531.98 158.24C531.754 158.253 531.52 158.267 531.28 158.28V157.44C531.867 157.44 532.32 157.413 532.64 157.36C532.96 157.307 533.2 157.24 533.36 157.16C533.534 157.08 533.667 156.993 533.76 156.9H534.34V169.88C534.34 170.093 534.334 170.307 534.32 170.52C534.307 170.733 534.287 170.973 534.26 171.24C534.5 171.227 534.734 171.213 534.96 171.2C535.2 171.187 535.44 171.173 535.68 171.16V172H532.82C532.78 171.8 532.747 171.62 532.72 171.46C532.707 171.287 532.694 171.12 532.68 170.96C532.307 171.373 531.847 171.707 531.3 171.96C530.754 172.2 530.147 172.32 529.48 172.32ZM530.2 171.34C530.64 171.34 531.08 171.213 531.52 170.96C531.974 170.707 532.347 170.393 532.64 170.02C532.627 169.86 532.62 169.693 532.62 169.52C532.62 169.333 532.62 169.133 532.62 168.92L532.64 163.16C532.32 162.92 531.967 162.747 531.58 162.64C531.207 162.52 530.82 162.46 530.42 162.46C529.754 162.46 529.174 162.653 528.68 163.04C528.187 163.427 527.814 163.967 527.56 164.66C527.307 165.353 527.194 166.167 527.22 167.1C527.247 167.913 527.374 168.64 527.6 169.28C527.84 169.92 528.174 170.427 528.6 170.8C529.04 171.16 529.574 171.34 530.2 171.34ZM537.153 171.4C537.567 171.4 537.853 171.3 538.013 171.1C538.173 170.887 538.267 170.6 538.293 170.24C538.32 169.867 538.333 169.44 538.333 168.96V164.4C538.333 164.187 538.333 163.973 538.333 163.76C538.347 163.547 538.373 163.327 538.413 163.1C538.173 163.113 537.933 163.127 537.693 163.14C537.467 163.14 537.233 163.147 536.993 163.16V162.34H537.613C538.187 162.34 538.58 162.287 538.793 162.18C539.02 162.06 539.207 161.933 539.353 161.8H539.933C539.96 162.013 539.98 162.28 539.993 162.6C540.007 162.907 540.02 163.3 540.033 163.78C540.233 163.447 540.507 163.12 540.853 162.8C541.2 162.48 541.587 162.213 542.013 162C542.453 161.787 542.913 161.68 543.393 161.68C543.767 161.68 544.093 161.78 544.373 161.98C544.653 162.18 544.793 162.5 544.793 162.94C544.793 163.047 544.76 163.18 544.693 163.34C544.627 163.487 544.52 163.62 544.373 163.74C544.227 163.847 544.033 163.9 543.793 163.9C543.5 163.887 543.267 163.773 543.093 163.56C542.92 163.333 542.853 163.073 542.893 162.78C542.56 162.767 542.213 162.853 541.853 163.04C541.507 163.227 541.18 163.487 540.873 163.82C540.567 164.14 540.293 164.52 540.053 164.96L540.073 169.88C540.073 170.147 540.067 170.387 540.053 170.6C540.053 170.8 540.033 171.013 539.993 171.24C540.207 171.227 540.413 171.22 540.613 171.22C540.827 171.207 541.04 171.193 541.253 171.18V172H537.153V171.4ZM550.629 172.32C549.696 172.32 548.849 172.107 548.089 171.68C547.329 171.24 546.722 170.64 546.269 169.88C545.829 169.107 545.609 168.227 545.609 167.24C545.609 166.187 545.829 165.24 546.269 164.4C546.709 163.56 547.309 162.9 548.069 162.42C548.829 161.927 549.682 161.68 550.629 161.68C551.562 161.68 552.409 161.907 553.169 162.36C553.929 162.8 554.536 163.4 554.989 164.16C555.442 164.92 555.669 165.787 555.669 166.76C555.669 167.787 555.442 168.727 554.989 169.58C554.549 170.42 553.949 171.087 553.189 171.58C552.429 172.073 551.576 172.32 550.629 172.32ZM550.789 171.52C551.496 171.52 552.056 171.32 552.469 170.92C552.882 170.52 553.176 170 553.349 169.36C553.536 168.72 553.629 168.047 553.629 167.34C553.629 166.74 553.569 166.153 553.449 165.58C553.342 164.993 553.169 164.467 552.929 164C552.689 163.52 552.376 163.14 551.989 162.86C551.616 162.58 551.162 162.44 550.629 162.44C549.936 162.44 549.369 162.64 548.929 163.04C548.489 163.44 548.162 163.96 547.949 164.6C547.749 165.24 547.649 165.927 547.649 166.66C547.649 167.487 547.762 168.273 547.989 169.02C548.216 169.753 548.562 170.353 549.029 170.82C549.496 171.287 550.082 171.52 550.789 171.52ZM557.188 177.1V176.5C557.602 176.5 557.888 176.393 558.048 176.18C558.208 175.98 558.302 175.693 558.328 175.32C558.355 174.96 558.368 174.54 558.368 174.06L558.408 164.4C558.408 164.187 558.408 163.973 558.408 163.76C558.422 163.547 558.448 163.327 558.488 163.1C558.248 163.113 558.008 163.127 557.768 163.14C557.542 163.153 557.308 163.167 557.068 163.18V162.34C557.655 162.34 558.095 162.313 558.388 162.26C558.695 162.207 558.915 162.14 559.048 162.06C559.195 161.98 559.315 161.893 559.408 161.8H560.008C560.022 161.933 560.035 162.093 560.048 162.28C560.062 162.453 560.075 162.653 560.088 162.88C560.488 162.52 560.962 162.233 561.508 162.02C562.068 161.793 562.628 161.68 563.188 161.68C563.962 161.68 564.682 161.88 565.348 162.28C566.015 162.68 566.555 163.253 566.968 164C567.382 164.733 567.588 165.613 567.588 166.64C567.588 167.773 567.348 168.767 566.868 169.62C566.402 170.473 565.782 171.14 565.008 171.62C564.235 172.087 563.395 172.32 562.488 172.32C562.022 172.32 561.588 172.26 561.188 172.14C560.802 172.033 560.435 171.873 560.088 171.66V174.98C560.088 175.247 560.082 175.48 560.068 175.68C560.068 175.893 560.048 176.113 560.008 176.34C560.222 176.327 560.428 176.313 560.628 176.3C560.842 176.3 561.055 176.293 561.268 176.28V177.1H557.188ZM562.448 171.52C563.088 171.52 563.635 171.327 564.088 170.94C564.555 170.54 564.908 170 565.148 169.32C565.402 168.627 565.528 167.84 565.528 166.96C565.528 166.24 565.422 165.553 565.208 164.9C565.008 164.233 564.682 163.693 564.228 163.28C563.788 162.867 563.202 162.66 562.468 162.66C562.015 162.66 561.575 162.773 561.148 163C560.735 163.213 560.388 163.473 560.108 163.78C560.108 163.833 560.108 163.913 560.108 164.02C560.122 164.113 560.128 164.287 560.128 164.54C560.128 164.78 560.128 165.147 560.128 165.64C560.128 166.12 560.122 166.773 560.108 167.6C560.108 168.427 560.108 169.473 560.108 170.74C560.442 170.993 560.802 171.187 561.188 171.32C561.588 171.453 562.008 171.52 562.448 171.52ZM374.068 198.32C373.215 198.32 372.488 198.18 371.888 197.9C371.288 197.607 370.828 197.247 370.508 196.82C370.188 196.393 370.028 195.987 370.028 195.6C370.028 195.293 370.108 195.04 370.268 194.84C370.428 194.627 370.655 194.513 370.948 194.5C371.188 194.487 371.375 194.533 371.508 194.64C371.655 194.733 371.755 194.853 371.808 195C371.862 195.147 371.888 195.28 371.888 195.4C371.888 195.533 371.868 195.667 371.828 195.8C371.788 195.933 371.735 196.06 371.668 196.18C371.722 196.5 371.888 196.767 372.168 196.98C372.448 197.18 372.768 197.327 373.128 197.42C373.502 197.513 373.842 197.553 374.148 197.54C374.802 197.513 375.328 197.34 375.728 197.02C376.128 196.687 376.422 196.267 376.608 195.76C376.808 195.253 376.908 194.72 376.908 194.16C376.908 193.787 376.875 193.373 376.808 192.92C376.755 192.467 376.622 192.04 376.408 191.64C376.208 191.227 375.902 190.887 375.488 190.62C375.075 190.353 374.515 190.22 373.808 190.22C373.582 190.22 373.302 190.247 372.968 190.3C372.648 190.353 372.322 190.433 371.988 190.54C371.668 190.647 371.395 190.773 371.168 190.92L370.608 190.4L370.568 184H375.748C376.508 184 377.028 183.9 377.308 183.7C377.602 183.487 377.748 183.153 377.748 182.7H378.288L378.168 185.34L371.488 185.48V189.88C371.808 189.747 372.222 189.62 372.728 189.5C373.248 189.38 373.802 189.32 374.388 189.32C375.215 189.32 375.915 189.453 376.488 189.72C377.075 189.973 377.548 190.32 377.908 190.76C378.282 191.187 378.555 191.667 378.728 192.2C378.902 192.72 378.988 193.253 378.988 193.8C378.988 194.787 378.755 195.62 378.288 196.3C377.835 196.967 377.235 197.473 376.488 197.82C375.742 198.153 374.935 198.32 374.068 198.32ZM393.781 198.2C393.194 196.867 392.601 195.54 392.001 194.22C391.401 192.887 390.814 191.54 390.241 190.18C390.054 189.753 389.867 189.327 389.681 188.9C389.507 188.46 389.334 188.02 389.161 187.58C389.001 187.14 388.834 186.7 388.661 186.26C388.661 186.407 388.654 186.553 388.641 186.7C388.641 186.847 388.641 186.993 388.641 187.14C388.627 187.62 388.607 188.2 388.581 188.88C388.567 189.547 388.547 190.267 388.521 191.04C388.494 191.8 388.474 192.567 388.461 193.34C388.447 194.1 388.434 194.82 388.421 195.5C388.407 195.793 388.394 196.087 388.381 196.38C388.381 196.673 388.367 196.947 388.341 197.2C388.594 197.187 388.841 197.173 389.081 197.16C389.334 197.147 389.587 197.133 389.841 197.12V198H386.021V197.34C386.434 197.327 386.734 197.24 386.921 197.08C387.121 196.907 387.247 196.68 387.301 196.4C387.354 196.12 387.387 195.82 387.401 195.5L387.781 186.38C387.794 186.113 387.801 185.847 387.801 185.58C387.814 185.313 387.827 185.053 387.841 184.8C387.601 184.813 387.361 184.827 387.121 184.84C386.881 184.84 386.641 184.847 386.401 184.86V184H389.461L392.901 191.94C393.074 192.34 393.241 192.74 393.401 193.14C393.574 193.54 393.747 193.94 393.921 194.34C394.107 194.74 394.287 195.147 394.461 195.56H394.501C394.647 195.2 394.821 194.773 395.021 194.28C395.221 193.773 395.387 193.34 395.521 192.98C396.107 191.513 396.714 190.047 397.341 188.58C397.981 187.1 398.607 185.573 399.221 184H402.181V184.66C401.847 184.647 401.574 184.713 401.361 184.86C401.147 184.993 400.994 185.22 400.901 185.54C400.807 185.86 400.774 186.293 400.801 186.84L401.321 195.94C401.347 196.167 401.361 196.387 401.361 196.6C401.361 196.813 401.361 197.007 401.361 197.18C401.601 197.167 401.841 197.16 402.081 197.16C402.334 197.147 402.581 197.133 402.821 197.12V198H398.341V197.34C398.754 197.327 399.061 197.227 399.261 197.04C399.461 196.853 399.581 196.587 399.621 196.24C399.674 195.893 399.687 195.467 399.661 194.96L399.261 188.36C399.247 188.147 399.234 187.933 399.221 187.72C399.207 187.507 399.194 187.293 399.181 187.08C399.167 186.867 399.154 186.653 399.141 186.44C399.101 186.533 399.054 186.633 399.001 186.74C398.961 186.847 398.921 186.96 398.881 187.08L394.381 198.2H393.781ZM405.02 185.5C405.02 185.287 405.02 185.087 405.02 184.9C405.033 184.7 405.053 184.467 405.08 184.2C404.84 184.213 404.6 184.227 404.36 184.24C404.133 184.253 403.9 184.267 403.66 184.28V183.44C404.247 183.44 404.7 183.413 405.02 183.36C405.353 183.307 405.6 183.24 405.76 183.16C405.933 183.08 406.067 182.993 406.16 182.9H406.74V188.86C407.113 188.487 407.553 188.2 408.06 188C408.58 187.787 409.147 187.68 409.76 187.68C410.613 187.68 411.38 187.887 412.06 188.3C412.753 188.713 413.3 189.3 413.7 190.06C414.1 190.82 414.3 191.72 414.3 192.76C414.3 193.893 414.053 194.88 413.56 195.72C413.067 196.547 412.427 197.187 411.64 197.64C410.853 198.093 410.007 198.32 409.1 198.32C408.647 198.32 408.147 198.233 407.6 198.06C407.067 197.9 406.587 197.58 406.16 197.1L405.68 198H404.98L405.02 185.5ZM406.74 194.86C406.74 195.567 406.853 196.113 407.08 196.5C407.307 196.873 407.6 197.133 407.96 197.28C408.32 197.427 408.7 197.5 409.1 197.5C409.74 197.5 410.293 197.32 410.76 196.96C411.227 196.6 411.587 196.107 411.84 195.48C412.107 194.84 412.24 194.1 412.24 193.26C412.24 192.353 412.127 191.56 411.9 190.88C411.673 190.187 411.333 189.647 410.88 189.26C410.427 188.86 409.853 188.66 409.16 188.66C408.72 188.66 408.28 188.767 407.84 188.98C407.413 189.18 407.047 189.453 406.74 189.8V194.86ZM421.075 197.4C421.488 197.4 421.775 197.3 421.935 197.1C422.095 196.887 422.188 196.6 422.215 196.24C422.241 195.867 422.255 195.44 422.255 194.96V185.5C422.255 185.287 422.255 185.087 422.255 184.9C422.268 184.7 422.288 184.467 422.315 184.2C422.075 184.213 421.835 184.227 421.595 184.24C421.368 184.253 421.135 184.267 420.895 184.28V183.44C421.481 183.44 421.935 183.413 422.255 183.36C422.588 183.307 422.835 183.24 422.995 183.16C423.168 183.08 423.301 182.993 423.395 182.9H423.975L423.995 195.88C423.995 196.147 423.988 196.387 423.975 196.6C423.961 196.8 423.935 197.013 423.895 197.24C424.108 197.227 424.315 197.22 424.515 197.22C424.728 197.207 424.941 197.193 425.155 197.18V198H421.075V197.4ZM426.724 197.4C427.137 197.4 427.424 197.3 427.584 197.1C427.744 196.887 427.837 196.6 427.864 196.24C427.89 195.867 427.904 195.44 427.904 194.96V190.4C427.904 190.187 427.91 189.987 427.924 189.8C427.937 189.6 427.957 189.367 427.984 189.1C427.744 189.113 427.504 189.127 427.264 189.14C427.037 189.153 426.804 189.167 426.564 189.18V188.34C427.15 188.34 427.604 188.313 427.924 188.26C428.244 188.207 428.484 188.14 428.644 188.06C428.817 187.98 428.95 187.893 429.044 187.8H429.624V195.88C429.624 196.147 429.617 196.387 429.604 196.6C429.604 196.8 429.584 197.013 429.544 197.24C429.757 197.227 429.964 197.22 430.164 197.22C430.377 197.207 430.59 197.193 430.804 197.18V198H426.724V197.4ZM428.664 185.82C428.384 185.82 428.137 185.707 427.924 185.48C427.71 185.253 427.604 184.973 427.604 184.64C427.604 184.307 427.71 184.027 427.924 183.8C428.15 183.56 428.404 183.44 428.684 183.44C428.99 183.44 429.244 183.56 429.444 183.8C429.657 184.027 429.764 184.307 429.764 184.64C429.764 184.973 429.65 185.253 429.424 185.48C429.21 185.707 428.957 185.82 428.664 185.82ZM432.349 198V197.4C432.762 197.4 433.049 197.3 433.209 197.1C433.369 196.887 433.462 196.6 433.489 196.24C433.515 195.867 433.529 195.44 433.529 194.96V190.4C433.529 190.187 433.529 189.973 433.529 189.76C433.542 189.547 433.569 189.327 433.609 189.1C433.369 189.113 433.129 189.127 432.889 189.14C432.662 189.153 432.429 189.167 432.189 189.18V188.34C432.775 188.34 433.215 188.313 433.509 188.26C433.815 188.207 434.042 188.14 434.189 188.06C434.335 187.98 434.455 187.893 434.549 187.8H435.129C435.155 187.933 435.169 188.087 435.169 188.26C435.182 188.433 435.195 188.633 435.209 188.86C435.609 188.513 436.069 188.233 436.589 188.02C437.109 187.793 437.629 187.68 438.149 187.68C438.815 187.68 439.375 187.8 439.829 188.04C440.282 188.28 440.635 188.607 440.889 189.02C441.342 188.647 441.862 188.333 442.449 188.08C443.049 187.813 443.635 187.68 444.209 187.68C445.369 187.68 446.222 188.033 446.769 188.74C447.315 189.433 447.575 190.573 447.549 192.16L447.529 195.88C447.529 196.147 447.522 196.387 447.509 196.6C447.509 196.8 447.489 197.013 447.449 197.24C447.662 197.227 447.869 197.22 448.069 197.22C448.282 197.207 448.495 197.193 448.709 197.18V198H444.629V197.4C445.042 197.4 445.329 197.3 445.489 197.1C445.649 196.887 445.742 196.6 445.769 196.24C445.795 195.867 445.809 195.44 445.809 194.96V192.16C445.809 191.013 445.622 190.153 445.249 189.58C444.889 189.007 444.315 188.727 443.529 188.74C443.115 188.74 442.702 188.833 442.289 189.02C441.875 189.207 441.515 189.44 441.209 189.72C441.275 189.933 441.322 190.167 441.349 190.42C441.389 190.66 441.409 190.913 441.409 191.18C441.395 191.953 441.389 192.733 441.389 193.52C441.389 194.307 441.382 195.093 441.369 195.88C441.369 196.147 441.362 196.387 441.349 196.6C441.349 196.8 441.329 197.013 441.289 197.24C441.502 197.227 441.709 197.22 441.909 197.22C442.122 197.207 442.335 197.193 442.549 197.18V198H438.469V197.4C438.882 197.4 439.162 197.3 439.309 197.1C439.469 196.887 439.562 196.6 439.589 196.24C439.629 195.867 439.649 195.44 439.649 194.96L439.669 192.16C439.682 191.013 439.515 190.147 439.169 189.56C438.822 188.973 438.255 188.687 437.469 188.7C437.055 188.7 436.649 188.793 436.249 188.98C435.849 189.153 435.509 189.38 435.229 189.66C435.229 189.82 435.229 189.993 435.229 190.18C435.242 190.353 435.249 190.54 435.249 190.74V195.88C435.249 196.147 435.242 196.387 435.229 196.6C435.229 196.8 435.209 197.013 435.169 197.24C435.382 197.227 435.589 197.22 435.789 197.22C436.002 197.207 436.215 197.193 436.429 197.18V198H432.349ZM450.22 197.4C450.633 197.4 450.92 197.3 451.08 197.1C451.24 196.887 451.333 196.6 451.36 196.24C451.387 195.867 451.4 195.44 451.4 194.96V190.4C451.4 190.187 451.407 189.987 451.42 189.8C451.433 189.6 451.453 189.367 451.48 189.1C451.24 189.113 451 189.127 450.76 189.14C450.533 189.153 450.3 189.167 450.06 189.18V188.34C450.647 188.34 451.1 188.313 451.42 188.26C451.74 188.207 451.98 188.14 452.14 188.06C452.313 187.98 452.447 187.893 452.54 187.8H453.12V195.88C453.12 196.147 453.113 196.387 453.1 196.6C453.1 196.8 453.08 197.013 453.04 197.24C453.253 197.227 453.46 197.22 453.66 197.22C453.873 197.207 454.087 197.193 454.3 197.18V198H450.22V197.4ZM452.16 185.82C451.88 185.82 451.633 185.707 451.42 185.48C451.207 185.253 451.1 184.973 451.1 184.64C451.1 184.307 451.207 184.027 451.42 183.8C451.647 183.56 451.9 183.44 452.18 183.44C452.487 183.44 452.74 183.56 452.94 183.8C453.153 184.027 453.26 184.307 453.26 184.64C453.26 184.973 453.147 185.253 452.92 185.48C452.707 185.707 452.453 185.82 452.16 185.82ZM459.917 198.32C459.611 198.32 459.297 198.273 458.977 198.18C458.657 198.1 458.357 197.933 458.077 197.68C457.811 197.427 457.597 197.06 457.437 196.58C457.277 196.087 457.197 195.44 457.197 194.64L457.237 188.84L455.697 188.86V188C456.044 187.987 456.397 187.86 456.757 187.62C457.117 187.367 457.437 187.027 457.717 186.6C458.011 186.173 458.211 185.707 458.317 185.2H458.997V188H462.357V188.78L458.997 188.82L458.957 194.38C458.957 194.98 459.004 195.493 459.097 195.92C459.204 196.333 459.371 196.647 459.597 196.86C459.824 197.073 460.117 197.18 460.477 197.18C460.851 197.18 461.197 197.073 461.517 196.86C461.851 196.647 462.144 196.353 462.397 195.98L462.937 196.42C462.644 196.86 462.351 197.207 462.057 197.46C461.777 197.713 461.504 197.9 461.237 198.02C460.971 198.153 460.724 198.233 460.497 198.26C460.271 198.3 460.077 198.32 459.917 198.32Z" fill="#B8B4B4"/>
<path fill-rule="evenodd" clip-rule="evenodd" d="M396.5 108.25H416H435.5C440.885 108.25 445.25 103.885 445.25 98.5C445.25 93.1152 440.885 88.75 435.5 88.75C434.592 88.75 434.137 88.75 433.82 88.6861C432.851 88.4912 432.391 88.1935 431.817 87.3896C431.629 87.1262 431.363 86.5352 430.833 85.3531C428.292 79.6925 422.607 75.75 416 75.75C409.393 75.75 403.708 79.6925 401.167 85.3531C400.637 86.5352 400.371 87.1262 400.183 87.3896C399.609 88.1935 399.149 88.4912 398.18 88.6861C397.863 88.75 397.409 88.75 396.5 88.75C391.115 88.75 386.75 93.1152 386.75 98.5C386.75 103.885 391.115 108.25 396.5 108.25Z" fill="#356592" fill-opacity="0.24"/>
<mask id="mask0_63_80" style="mask-type:luminance" maskUnits="userSpaceOnUse" x="383" y="72" width="66" height="40">
<path d="M448.5 72.5H383.5V111.5H448.5V72.5Z" fill="white"/>
<path fill-rule="evenodd" clip-rule="evenodd" d="M396.5 108.25H416H435.5C440.885 108.25 445.25 103.885 445.25 98.5C445.25 93.1152 440.885 88.75 435.5 88.75C434.592 88.75 434.137 88.75 433.82 88.6861C432.851 88.4912 432.391 88.1935 431.817 87.3896C431.629 87.1262 431.363 86.5352 430.833 85.3531C428.292 79.6925 422.607 75.75 416 75.75C409.393 75.75 403.708 79.6925 401.167 85.3531C400.637 86.5352 400.371 87.1262 400.183 87.3896C399.609 88.1935 399.149 88.4912 398.18 88.6861C397.863 88.75 397.409 88.75 396.5 88.75C391.115 88.75 386.75 93.1152 386.75 98.5C386.75 103.885 391.115 108.25 396.5 108.25Z" fill="white"/>
</mask>
<g mask="url(#mask0_63_80)">
<path d="M416 106.3H396.5V110.2H416V106.3ZM435.5 106.3H416V110.2H435.5V106.3ZM443.3 98.5C443.3 102.808 439.808 106.3 435.5 106.3V110.2C441.962 110.2 447.2 104.962 447.2 98.5H443.3ZM435.5 90.7C439.808 90.7 443.3 94.1922 443.3 98.5H447.2C447.2 92.0383 441.962 86.8 435.5 86.8V90.7ZM432.612 84.5547C429.768 78.219 423.402 73.8 416 73.8V77.7C421.811 77.7 426.816 81.166 429.054 86.1516L432.612 84.5547ZM416 73.8C408.598 73.8 402.232 78.219 399.388 84.5547L402.946 86.1516C405.184 81.166 410.189 77.7 416 77.7V73.8ZM396.5 86.8C390.038 86.8 384.8 92.0383 384.8 98.5H388.7C388.7 94.1922 392.192 90.7 396.5 90.7V86.8ZM384.8 98.5C384.8 104.962 390.038 110.2 396.5 110.2V106.3C392.192 106.3 388.7 102.808 388.7 98.5H384.8ZM399.388 84.5547C399.119 85.1544 398.93 85.5742 398.786 85.8786C398.626 86.215 398.578 86.2821 398.597 86.2559L401.77 88.5235C401.977 88.2338 402.156 87.8737 402.308 87.5532C402.476 87.2007 402.685 86.7339 402.946 86.1516L399.388 84.5547ZM396.5 90.7C397.293 90.7 398.005 90.7105 398.565 90.5978L397.795 86.7745C397.8 86.7735 397.738 86.7859 397.503 86.7929C397.273 86.7999 396.966 86.8 396.5 86.8V90.7ZM398.597 86.2559C398.383 86.555 398.292 86.6152 398.27 86.6293C398.248 86.6433 398.156 86.7019 397.795 86.7745L398.565 90.5978C399.173 90.4754 399.795 90.2877 400.389 89.9032C400.983 89.5188 401.409 89.0282 401.77 88.5235L398.597 86.2559ZM435.5 86.8C435.034 86.8 434.727 86.7999 434.497 86.7929C434.261 86.7859 434.2 86.7735 434.205 86.7745L433.435 90.5978C433.995 90.7105 434.707 90.7 435.5 90.7V86.8ZM429.054 86.1516C429.315 86.7339 429.525 87.2007 429.692 87.5532C429.844 87.8737 430.023 88.2338 430.23 88.5235L433.403 86.2559C433.422 86.2821 433.374 86.215 433.214 85.8786C433.07 85.5742 432.881 85.1544 432.612 84.5547L429.054 86.1516ZM434.205 86.7745C433.844 86.7019 433.752 86.6433 433.73 86.6293C433.708 86.6152 433.617 86.555 433.403 86.2559L430.23 88.5235C430.591 89.0282 431.017 89.5188 431.611 89.9032C432.205 90.2877 432.827 90.4754 433.435 90.5978L434.205 86.7745Z" fill="#356592" fill-opacity="0.24"/>
</g>
<path fill-rule="evenodd" clip-rule="evenodd" d="M416 73.8C408.598 73.8 402.232 78.2191 399.388 84.5547C399.119 85.1544 398.93 85.5742 398.786 85.8786C398.671 86.1201 398.614 86.2228 398.598 86.2519C398.591 86.2632 398.591 86.2633 398.597 86.2559C398.383 86.5551 398.292 86.6152 398.27 86.6293C398.248 86.6433 398.156 86.702 397.795 86.7745C397.796 86.7745 397.796 86.7745 397.795 86.7745C397.79 86.7753 397.721 86.7864 397.503 86.793C397.273 86.7999 396.966 86.8 396.5 86.8C390.038 86.8 384.8 92.0383 384.8 98.5C384.8 104.962 390.038 110.2 396.5 110.2H398.358L402.258 106.3H396.5C392.192 106.3 388.7 102.808 388.7 98.5C388.7 94.1922 392.192 90.7 396.5 90.7L396.686 90.7002C397.405 90.701 398.049 90.7016 398.565 90.5978C399.173 90.4754 399.795 90.2878 400.389 89.9032C400.983 89.5188 401.409 89.0282 401.77 88.5235C401.977 88.2338 402.156 87.8737 402.308 87.5532C402.473 87.2054 402.679 86.7463 402.936 86.1747L402.946 86.1516C405.184 81.166 410.189 77.7 416 77.7C421.811 77.7 426.816 81.166 429.054 86.1516L429.064 86.1738C429.32 86.7458 429.526 87.2052 429.692 87.5532C429.844 87.8737 430.023 88.2338 430.23 88.5235C430.591 89.0282 431.017 89.5188 431.611 89.9032C432.205 90.2878 432.827 90.4754 433.435 90.5978C433.951 90.7016 434.595 90.701 435.314 90.7002L435.5 90.7C439.808 90.7 443.3 94.1922 443.3 98.5C443.3 102.808 439.808 106.3 435.5 106.3H429.742L433.642 110.2H435.5C441.962 110.2 447.2 104.962 447.2 98.5C447.2 92.0383 441.962 86.8 435.5 86.8C435.034 86.8 434.727 86.7999 434.497 86.793C434.279 86.7864 434.21 86.7753 434.205 86.7745C434.204 86.7744 434.204 86.7744 434.205 86.7745C433.844 86.702 433.752 86.6433 433.73 86.6293C433.708 86.6152 433.617 86.5551 433.403 86.2559C433.406 86.26 433.408 86.2618 433.407 86.2607C433.407 86.2599 433.405 86.257 433.402 86.2519C433.386 86.2228 433.329 86.1201 433.214 85.8786C433.07 85.5742 432.881 85.1544 432.612 84.5547C429.768 78.2191 423.402 73.8 416 73.8Z" fill="white"/>
<path d="M416 105L414.621 103.621L416 102.242L417.379 103.621L416 105ZM417.95 134.25C417.95 135.327 417.077 136.2 416 136.2C414.923 136.2 414.05 135.327 414.05 134.25H417.95ZM401.621 116.621L414.621 103.621L417.379 106.379L404.379 119.379L401.621 116.621ZM417.379 103.621L430.379 116.621L427.621 119.379L414.621 106.379L417.379 103.621ZM417.95 105V134.25H414.05V105H417.95Z" fill="white"/>
<defs>
<linearGradient id="paint0_linear_63_80" x1="416.5" y1="0" x2="416.5" y2="278" gradientUnits="userSpaceOnUse">
<stop stop-color="#0057FF"/>
<stop offset="1" stop-color="#AD00FF" stop-opacity="0.63"/>
</linearGradient>
</defs>
</svg>
