<svg width="833" height="278" viewBox="0 0 833 278" fill="none" xmlns="http://www.w3.org/2000/svg">
<rect x="0.5" y="0.5" width="832" height="277" rx="59.5" fill="#232323" stroke="url(#paint0_linear_38_332)" stroke-linejoin="round"/>
<path d="M273.361 170.28C272.221 170.28 271.228 170.01 270.381 169.47C269.541 168.923 268.888 168.143 268.421 167.13C267.955 166.117 267.721 164.9 267.721 163.48C267.721 162.013 267.961 160.783 268.441 159.79C268.928 158.79 269.595 158.037 270.441 157.53C271.295 157.017 272.268 156.76 273.361 156.76C274.875 156.76 276.055 157.127 276.901 157.86C277.755 158.593 278.301 159.547 278.541 160.72L276.021 161.18C275.815 160.5 275.485 159.95 275.031 159.53C274.578 159.11 274.021 158.9 273.361 158.9C272.781 158.9 272.258 159.07 271.791 159.41C271.325 159.743 270.951 160.25 270.671 160.93C270.398 161.61 270.261 162.46 270.261 163.48C270.261 164.44 270.381 165.267 270.621 165.96C270.868 166.653 271.221 167.187 271.681 167.56C272.141 167.933 272.701 168.12 273.361 168.12C274.208 168.12 274.861 167.897 275.321 167.45C275.788 166.997 276.021 166.42 276.021 165.72H278.541C278.541 166.687 278.331 167.51 277.911 168.19C277.498 168.863 276.905 169.38 276.131 169.74C275.358 170.1 274.435 170.28 273.361 170.28ZM281.317 170V156.28H283.677V170H281.317ZM288.791 158.52C288.331 158.52 287.971 158.4 287.711 158.16C287.457 157.913 287.331 157.573 287.331 157.14C287.331 156.72 287.457 156.387 287.711 156.14C287.971 155.887 288.331 155.76 288.791 155.76C289.244 155.76 289.601 155.887 289.861 156.14C290.121 156.387 290.251 156.72 290.251 157.14C290.251 157.573 290.121 157.913 289.861 158.16C289.601 158.4 289.244 158.52 288.791 158.52ZM287.611 170V160.26H289.971V170H287.611ZM297.653 170.28C296.84 170.28 296.083 170.07 295.383 169.65C294.69 169.223 294.127 168.627 293.693 167.86C293.267 167.087 293.053 166.18 293.053 165.14C293.053 164.04 293.267 163.11 293.693 162.35C294.127 161.583 294.69 161.003 295.383 160.61C296.083 160.217 296.84 160.02 297.653 160.02C298.287 160.02 298.843 160.123 299.323 160.33C299.81 160.53 300.223 160.803 300.563 161.15C300.903 161.49 301.17 161.87 301.363 162.29C301.557 162.71 301.68 163.133 301.733 163.56L299.353 163.62C299.247 163.193 299.047 162.84 298.753 162.56C298.467 162.28 298.093 162.14 297.633 162.14C297.253 162.14 296.897 162.247 296.563 162.46C296.23 162.667 295.957 162.99 295.743 163.43C295.537 163.87 295.433 164.44 295.433 165.14C295.433 165.807 295.53 166.363 295.723 166.81C295.923 167.25 296.19 167.583 296.523 167.81C296.857 168.03 297.227 168.14 297.633 168.14C298.233 168.14 298.67 167.997 298.943 167.71C299.217 167.417 299.353 167.027 299.353 166.54H301.733C301.733 167.227 301.577 167.853 301.263 168.42C300.95 168.987 300.49 169.44 299.883 169.78C299.277 170.113 298.533 170.28 297.653 170.28ZM304.559 170V156.28H306.919V170H304.559ZM306.599 163.98L310.759 160.3H313.959L306.599 166.42V163.98ZM311.319 170L306.979 163.82L309.219 163.28L314.199 170H311.319ZM324.734 170.28C324.16 170.28 323.634 170.173 323.154 169.96C322.68 169.747 322.3 169.42 322.014 168.98C321.734 168.54 321.594 167.98 321.594 167.3V157.72H323.954V167.22C323.954 168.02 324.334 168.42 325.094 168.42C325.327 168.42 325.56 168.393 325.794 168.34C326.027 168.287 326.294 168.207 326.594 168.1L326.934 169.76C326.56 169.907 326.197 170.03 325.844 170.13C325.49 170.23 325.12 170.28 324.734 170.28ZM320.234 161.86V160.3H326.594V161.86H320.234ZM333.164 170.28C332.278 170.28 331.474 170.09 330.754 169.71C330.041 169.33 329.474 168.763 329.054 168.01C328.634 167.25 328.424 166.3 328.424 165.16C328.424 164 328.634 163.04 329.054 162.28C329.474 161.52 330.041 160.953 330.754 160.58C331.474 160.207 332.278 160.02 333.164 160.02C334.038 160.02 334.828 160.207 335.534 160.58C336.248 160.953 336.814 161.52 337.234 162.28C337.654 163.04 337.864 164 337.864 165.16C337.864 166.3 337.654 167.25 337.234 168.01C336.814 168.763 336.248 169.33 335.534 169.71C334.828 170.09 334.038 170.28 333.164 170.28ZM333.084 168.22C333.551 168.22 333.964 168.107 334.324 167.88C334.691 167.647 334.978 167.303 335.184 166.85C335.398 166.397 335.504 165.833 335.504 165.16C335.504 164.133 335.301 163.36 334.894 162.84C334.494 162.32 333.944 162.06 333.244 162.06C332.771 162.06 332.351 162.177 331.984 162.41C331.618 162.637 331.328 162.98 331.114 163.44C330.908 163.9 330.804 164.473 330.804 165.16C330.804 166.173 331.008 166.937 331.414 167.45C331.828 167.963 332.384 168.22 333.084 168.22ZM352.191 160.26H354.551V170H352.191V160.26ZM345.531 160.26H347.891V166.22C347.891 166.853 348.048 167.33 348.361 167.65C348.674 167.963 349.104 168.12 349.651 168.12C350.118 168.12 350.541 168 350.921 167.76C351.308 167.513 351.614 167.153 351.841 166.68C352.074 166.2 352.191 165.607 352.191 164.9H352.831C352.831 166.087 352.678 167.07 352.371 167.85C352.064 168.63 351.641 169.213 351.101 169.6C350.561 169.987 349.938 170.18 349.231 170.18C348.538 170.18 347.911 170.057 347.351 169.81C346.791 169.563 346.348 169.167 346.021 168.62C345.694 168.073 345.531 167.353 345.531 166.46V160.26ZM363.13 170.28C362.417 170.28 361.81 170.127 361.31 169.82C360.81 169.513 360.427 169.05 360.16 168.43C359.9 167.803 359.77 167.02 359.77 166.08H360.63C360.63 166.513 360.73 166.883 360.93 167.19C361.13 167.497 361.393 167.733 361.72 167.9C362.053 168.06 362.41 168.14 362.79 168.14C363.183 168.14 363.57 168.033 363.95 167.82C364.337 167.6 364.657 167.27 364.91 166.83C365.163 166.383 365.29 165.82 365.29 165.14C365.29 164.52 365.183 163.987 364.97 163.54C364.757 163.087 364.463 162.74 364.09 162.5C363.723 162.26 363.303 162.14 362.83 162.14C362.43 162.14 362.063 162.23 361.73 162.41C361.397 162.59 361.13 162.853 360.93 163.2C360.73 163.54 360.63 163.953 360.63 164.44H359.77C359.77 163.42 359.927 162.587 360.24 161.94C360.553 161.287 360.973 160.803 361.5 160.49C362.027 160.177 362.603 160.02 363.23 160.02C363.997 160.02 364.717 160.223 365.39 160.63C366.07 161.037 366.62 161.623 367.04 162.39C367.46 163.15 367.67 164.067 367.67 165.14C367.67 166.22 367.457 167.143 367.03 167.91C366.603 168.677 366.043 169.263 365.35 169.67C364.663 170.077 363.923 170.28 363.13 170.28ZM358.27 174.74V160.3H360.21L360.63 162.7V174.74H358.27ZM370.477 170V156.28H372.837V170H370.477ZM380.391 170.28C379.504 170.28 378.701 170.09 377.981 169.71C377.268 169.33 376.701 168.763 376.281 168.01C375.861 167.25 375.651 166.3 375.651 165.16C375.651 164 375.861 163.04 376.281 162.28C376.701 161.52 377.268 160.953 377.981 160.58C378.701 160.207 379.504 160.02 380.391 160.02C381.264 160.02 382.054 160.207 382.761 160.58C383.474 160.953 384.041 161.52 384.461 162.28C384.881 163.04 385.091 164 385.091 165.16C385.091 166.3 384.881 167.25 384.461 168.01C384.041 168.763 383.474 169.33 382.761 169.71C382.054 170.09 381.264 170.28 380.391 170.28ZM380.311 168.22C380.778 168.22 381.191 168.107 381.551 167.88C381.918 167.647 382.204 167.303 382.411 166.85C382.624 166.397 382.731 165.833 382.731 165.16C382.731 164.133 382.528 163.36 382.121 162.84C381.721 162.32 381.171 162.06 380.471 162.06C379.998 162.06 379.578 162.177 379.211 162.41C378.844 162.637 378.554 162.98 378.341 163.44C378.134 163.9 378.031 164.473 378.031 165.16C378.031 166.173 378.234 166.937 378.641 167.45C379.054 167.963 379.611 168.22 380.311 168.22ZM394.079 170L393.779 167.64V163.74C393.779 163.06 393.639 162.557 393.359 162.23C393.086 161.903 392.619 161.74 391.959 161.74C391.579 161.74 391.249 161.797 390.969 161.91C390.689 162.023 390.472 162.187 390.319 162.4C390.172 162.607 390.099 162.86 390.099 163.16H387.519C387.519 162.427 387.696 161.83 388.049 161.37C388.402 160.903 388.909 160.563 389.569 160.35C390.236 160.13 391.032 160.02 391.959 160.02C392.799 160.02 393.532 160.157 394.159 160.43C394.786 160.697 395.272 161.11 395.619 161.67C395.966 162.23 396.139 162.947 396.139 163.82V170H394.079ZM390.899 170.28C390.066 170.28 389.369 170.137 388.809 169.85C388.256 169.557 387.839 169.173 387.559 168.7C387.279 168.227 387.139 167.713 387.139 167.16C387.139 166.547 387.299 166.033 387.619 165.62C387.946 165.2 388.406 164.887 388.999 164.68C389.592 164.467 390.292 164.36 391.099 164.36C391.626 164.36 392.122 164.4 392.589 164.48C393.062 164.56 393.532 164.667 393.999 164.8V166.18C393.632 166.06 393.232 165.967 392.799 165.9C392.366 165.833 391.959 165.8 391.579 165.8C391.019 165.8 390.559 165.903 390.199 166.11C389.839 166.317 389.659 166.667 389.659 167.16C389.659 167.52 389.806 167.83 390.099 168.09C390.392 168.35 390.859 168.48 391.499 168.48C391.986 168.48 392.399 168.373 392.739 168.16C393.079 167.947 393.336 167.68 393.509 167.36C393.689 167.04 393.779 166.72 393.779 166.4H394.339C394.339 167.1 394.209 167.747 393.949 168.34C393.689 168.927 393.302 169.397 392.789 169.75C392.282 170.103 391.652 170.28 390.899 170.28ZM403.178 170.28C402.365 170.28 401.622 170.067 400.948 169.64C400.282 169.207 399.748 168.603 399.348 167.83C398.955 167.05 398.758 166.14 398.758 165.1C398.758 164.073 398.948 163.18 399.328 162.42C399.715 161.653 400.228 161.063 400.868 160.65C401.515 160.23 402.232 160.02 403.018 160.02C403.738 160.02 404.362 160.193 404.888 160.54C405.415 160.88 405.818 161.387 406.098 162.06C406.378 162.733 406.518 163.56 406.518 164.54H405.778C405.778 164.033 405.675 163.603 405.468 163.25C405.262 162.89 404.988 162.617 404.648 162.43C404.315 162.237 403.952 162.14 403.558 162.14C403.085 162.14 402.665 162.263 402.298 162.51C401.938 162.757 401.655 163.103 401.448 163.55C401.242 163.99 401.138 164.507 401.138 165.1C401.138 165.713 401.242 166.247 401.448 166.7C401.655 167.153 401.938 167.507 402.298 167.76C402.665 168.013 403.078 168.14 403.538 168.14C403.912 168.14 404.268 168.04 404.608 167.84C404.955 167.633 405.235 167.347 405.448 166.98C405.668 166.613 405.778 166.187 405.778 165.7H406.518C406.518 166.72 406.365 167.57 406.058 168.25C405.758 168.923 405.355 169.43 404.848 169.77C404.342 170.11 403.785 170.28 403.178 170.28ZM406.218 170L405.778 167.6V156.28H408.158V170H406.218ZM420.25 170.24C419.39 170.24 418.623 170.05 417.95 169.67C417.283 169.29 416.756 168.727 416.37 167.98C415.983 167.233 415.79 166.313 415.79 165.22C415.79 164.12 415.983 163.2 416.37 162.46C416.756 161.713 417.283 161.15 417.95 160.77C418.623 160.39 419.39 160.2 420.25 160.2C421.103 160.2 421.863 160.39 422.53 160.77C423.203 161.15 423.73 161.713 424.11 162.46C424.496 163.2 424.69 164.12 424.69 165.22C424.69 166.313 424.496 167.233 424.11 167.98C423.73 168.727 423.203 169.29 422.53 169.67C421.863 170.05 421.103 170.24 420.25 170.24ZM420.21 168.88C420.83 168.88 421.356 168.733 421.79 168.44C422.223 168.14 422.55 167.717 422.77 167.17C422.996 166.623 423.11 165.973 423.11 165.22C423.11 164.08 422.873 163.183 422.4 162.53C421.926 161.87 421.223 161.54 420.29 161.54C419.663 161.54 419.133 161.69 418.7 161.99C418.273 162.283 417.946 162.707 417.72 163.26C417.5 163.807 417.39 164.46 417.39 165.22C417.39 166.347 417.626 167.24 418.1 167.9C418.58 168.553 419.283 168.88 420.21 168.88ZM427.727 170V160.42H429.287V170H427.727ZM428.807 165.68C428.807 164.467 428.924 163.46 429.157 162.66C429.39 161.853 429.73 161.253 430.177 160.86C430.63 160.46 431.18 160.26 431.827 160.26C432.04 160.26 432.234 160.277 432.407 160.31C432.587 160.337 432.767 160.38 432.947 160.44L432.847 161.98C432.66 161.92 432.457 161.87 432.237 161.83C432.017 161.783 431.82 161.76 431.647 161.76C431.08 161.76 430.624 161.923 430.277 162.25C429.93 162.57 429.677 163.023 429.517 163.61C429.364 164.197 429.287 164.887 429.287 165.68H428.807ZM443.12 170.24C442.346 170.24 441.636 170.033 440.99 169.62C440.343 169.2 439.826 168.613 439.44 167.86C439.053 167.1 438.86 166.207 438.86 165.18C438.86 164.16 439.05 163.277 439.43 162.53C439.81 161.783 440.313 161.21 440.94 160.81C441.573 160.403 442.266 160.2 443.02 160.2C443.72 160.2 444.333 160.37 444.86 160.71C445.393 161.05 445.806 161.54 446.1 162.18C446.393 162.82 446.54 163.593 446.54 164.5H445.94C445.94 163.867 445.813 163.333 445.56 162.9C445.313 162.467 444.99 162.14 444.59 161.92C444.19 161.693 443.76 161.58 443.3 161.58C442.78 161.58 442.303 161.727 441.87 162.02C441.443 162.307 441.1 162.72 440.84 163.26C440.586 163.793 440.46 164.433 440.46 165.18C440.46 165.94 440.586 166.593 440.84 167.14C441.1 167.687 441.443 168.107 441.87 168.4C442.303 168.693 442.78 168.84 443.3 168.84C443.733 168.84 444.15 168.727 444.55 168.5C444.956 168.273 445.29 167.943 445.55 167.51C445.81 167.07 445.94 166.54 445.94 165.92H446.54C446.54 166.847 446.386 167.633 446.08 168.28C445.78 168.92 445.37 169.407 444.85 169.74C444.336 170.073 443.76 170.24 443.12 170.24ZM446.2 170L445.94 167.76V156.36H447.5V170H446.2ZM451.555 170V160.42H453.115V170H451.555ZM452.635 165.68C452.635 164.467 452.752 163.46 452.985 162.66C453.218 161.853 453.558 161.253 454.005 160.86C454.458 160.46 455.008 160.26 455.655 160.26C455.868 160.26 456.062 160.277 456.235 160.31C456.415 160.337 456.595 160.38 456.775 160.44L456.675 161.98C456.488 161.92 456.285 161.87 456.065 161.83C455.845 161.783 455.648 161.76 455.475 161.76C454.908 161.76 454.452 161.923 454.105 162.25C453.758 162.57 453.505 163.023 453.345 163.61C453.192 164.197 453.115 164.887 453.115 165.68H452.635ZM464.702 170L464.502 167.9V163.8C464.502 162.94 464.318 162.323 463.952 161.95C463.585 161.57 463.035 161.38 462.302 161.38C461.888 161.38 461.512 161.44 461.172 161.56C460.838 161.68 460.572 161.867 460.372 162.12C460.178 162.367 460.082 162.687 460.082 163.08H458.342C458.342 162.387 458.512 161.83 458.852 161.41C459.192 160.983 459.658 160.677 460.252 160.49C460.852 160.297 461.535 160.2 462.302 160.2C463.035 160.2 463.685 160.323 464.252 160.57C464.818 160.817 465.262 161.21 465.582 161.75C465.902 162.283 466.062 162.98 466.062 163.84V170H464.702ZM461.442 170.24C460.655 170.24 460.005 170.1 459.492 169.82C458.978 169.54 458.595 169.177 458.342 168.73C458.088 168.283 457.962 167.813 457.962 167.32C457.962 166.673 458.122 166.147 458.442 165.74C458.768 165.333 459.212 165.037 459.772 164.85C460.332 164.657 460.962 164.56 461.662 164.56C462.162 164.56 462.662 164.61 463.162 164.71C463.668 164.81 464.162 164.947 464.642 165.12V166.1C464.242 165.94 463.788 165.813 463.282 165.72C462.782 165.627 462.322 165.58 461.902 165.58C461.262 165.58 460.722 165.713 460.282 165.98C459.842 166.24 459.622 166.687 459.622 167.32C459.622 167.787 459.788 168.187 460.122 168.52C460.462 168.853 461.002 169.02 461.742 169.02C462.262 169.02 462.728 168.9 463.142 168.66C463.562 168.413 463.892 168.107 464.132 167.74C464.378 167.373 464.502 167.007 464.502 166.64H464.882C464.882 167.28 464.742 167.873 464.462 168.42C464.188 168.967 463.795 169.407 463.282 169.74C462.768 170.073 462.155 170.24 461.442 170.24ZM473.177 174.92C472.197 174.92 471.347 174.78 470.627 174.5C469.907 174.227 469.347 173.857 468.947 173.39C468.554 172.93 468.357 172.42 468.357 171.86C468.357 171.12 468.627 170.553 469.167 170.16C469.714 169.773 470.417 169.58 471.277 169.58L472.137 170.12C471.417 170.12 470.861 170.27 470.467 170.57C470.074 170.87 469.877 171.28 469.877 171.8C469.877 172.32 470.157 172.76 470.717 173.12C471.277 173.48 472.097 173.66 473.177 173.66C473.977 173.66 474.677 173.543 475.277 173.31C475.884 173.083 476.354 172.783 476.687 172.41C477.027 172.043 477.197 171.647 477.197 171.22C477.197 170.92 477.087 170.66 476.867 170.44C476.647 170.227 476.311 170.12 475.857 170.12H472.137C471.491 170.12 470.931 170.023 470.457 169.83C469.991 169.63 469.631 169.37 469.377 169.05C469.124 168.73 468.997 168.38 468.997 168C468.997 167.6 469.111 167.26 469.337 166.98C469.564 166.7 469.857 166.487 470.217 166.34C470.584 166.193 470.977 166.12 471.397 166.12L471.697 166.7C471.497 166.7 471.294 166.747 471.087 166.84C470.887 166.927 470.717 167.06 470.577 167.24C470.444 167.413 470.377 167.633 470.377 167.9C470.377 168.207 470.504 168.463 470.757 168.67C471.011 168.877 471.471 168.98 472.137 168.98H475.857C476.757 168.98 477.464 169.17 477.977 169.55C478.497 169.93 478.757 170.46 478.757 171.14C478.757 171.767 478.534 172.367 478.087 172.94C477.641 173.52 477.001 173.993 476.167 174.36C475.334 174.733 474.337 174.92 473.177 174.92ZM473.457 167.2C472.724 167.2 472.061 167.053 471.467 166.76C470.881 166.467 470.414 166.057 470.067 165.53C469.727 165.003 469.557 164.393 469.557 163.7C469.557 163 469.727 162.387 470.067 161.86C470.414 161.333 470.881 160.927 471.467 160.64C472.061 160.347 472.724 160.2 473.457 160.2C474.171 160.2 474.817 160.347 475.397 160.64C475.984 160.927 476.451 161.333 476.797 161.86C477.144 162.387 477.317 163 477.317 163.7C477.317 164.393 477.144 165.003 476.797 165.53C476.451 166.057 475.984 166.467 475.397 166.76C474.817 167.053 474.171 167.2 473.457 167.2ZM473.457 166.08C474.191 166.08 474.761 165.853 475.167 165.4C475.574 164.947 475.777 164.38 475.777 163.7C475.777 163 475.574 162.433 475.167 162C474.761 161.56 474.191 161.34 473.457 161.34C472.731 161.34 472.157 161.56 471.737 162C471.324 162.433 471.117 163 471.117 163.7C471.117 164.38 471.324 164.947 471.737 165.4C472.157 165.853 472.731 166.08 473.457 166.08ZM476.597 161.72L475.857 161.42C475.857 160.86 475.967 160.37 476.187 159.95C476.407 159.523 476.721 159.193 477.127 158.96C477.534 158.72 478.017 158.6 478.577 158.6L478.457 160.14C477.857 160.14 477.397 160.27 477.077 160.53C476.757 160.783 476.597 161.18 476.597 161.72ZM491.753 170L491.553 167.9V163.8C491.553 162.94 491.369 162.323 491.003 161.95C490.636 161.57 490.086 161.38 489.353 161.38C488.939 161.38 488.563 161.44 488.223 161.56C487.889 161.68 487.623 161.867 487.423 162.12C487.229 162.367 487.133 162.687 487.133 163.08H485.393C485.393 162.387 485.563 161.83 485.903 161.41C486.243 160.983 486.709 160.677 487.303 160.49C487.903 160.297 488.586 160.2 489.353 160.2C490.086 160.2 490.736 160.323 491.303 160.57C491.869 160.817 492.313 161.21 492.633 161.75C492.953 162.283 493.113 162.98 493.113 163.84V170H491.753ZM488.493 170.24C487.706 170.24 487.056 170.1 486.543 169.82C486.029 169.54 485.646 169.177 485.393 168.73C485.139 168.283 485.013 167.813 485.013 167.32C485.013 166.673 485.173 166.147 485.493 165.74C485.819 165.333 486.263 165.037 486.823 164.85C487.383 164.657 488.013 164.56 488.713 164.56C489.213 164.56 489.713 164.61 490.213 164.71C490.719 164.81 491.213 164.947 491.693 165.12V166.1C491.293 165.94 490.839 165.813 490.333 165.72C489.833 165.627 489.373 165.58 488.952 165.58C488.313 165.58 487.773 165.713 487.333 165.98C486.893 166.24 486.673 166.687 486.673 167.32C486.673 167.787 486.839 168.187 487.173 168.52C487.513 168.853 488.053 169.02 488.793 169.02C489.313 169.02 489.779 168.9 490.193 168.66C490.613 168.413 490.943 168.107 491.183 167.74C491.429 167.373 491.553 167.007 491.553 166.64H491.933C491.933 167.28 491.793 167.873 491.513 168.42C491.239 168.967 490.846 169.407 490.333 169.74C489.819 170.073 489.206 170.24 488.493 170.24ZM503.648 170V164.38C503.648 163.467 503.428 162.773 502.988 162.3C502.555 161.82 501.961 161.58 501.208 161.58C500.635 161.58 500.138 161.737 499.718 162.05C499.298 162.363 498.975 162.813 498.748 163.4C498.521 163.98 498.408 164.673 498.408 165.48H497.808C497.808 164.367 497.955 163.417 498.248 162.63C498.541 161.843 498.968 161.243 499.528 160.83C500.095 160.41 500.781 160.2 501.588 160.2C502.341 160.2 502.985 160.37 503.518 160.71C504.058 161.043 504.471 161.523 504.758 162.15C505.045 162.777 505.188 163.52 505.188 164.38V170H503.648ZM496.848 170V160.44H498.188L498.408 162.64V170H496.848ZM512.338 170.24C511.565 170.24 510.855 170.033 510.208 169.62C509.562 169.2 509.045 168.613 508.658 167.86C508.272 167.1 508.078 166.207 508.078 165.18C508.078 164.16 508.268 163.277 508.648 162.53C509.028 161.783 509.532 161.21 510.158 160.81C510.792 160.403 511.485 160.2 512.238 160.2C512.938 160.2 513.552 160.37 514.078 160.71C514.612 161.05 515.025 161.54 515.318 162.18C515.612 162.82 515.758 163.593 515.758 164.5H515.158C515.158 163.867 515.032 163.333 514.778 162.9C514.532 162.467 514.208 162.14 513.808 161.92C513.408 161.693 512.978 161.58 512.518 161.58C511.998 161.58 511.522 161.727 511.088 162.02C510.662 162.307 510.318 162.72 510.058 163.26C509.805 163.793 509.678 164.433 509.678 165.18C509.678 165.94 509.805 166.593 510.058 167.14C510.318 167.687 510.662 168.107 511.088 168.4C511.522 168.693 511.998 168.84 512.518 168.84C512.952 168.84 513.368 168.727 513.768 168.5C514.175 168.273 514.508 167.943 514.768 167.51C515.028 167.07 515.158 166.54 515.158 165.92H515.758C515.758 166.847 515.605 167.633 515.298 168.28C514.998 168.92 514.588 169.407 514.068 169.74C513.555 170.073 512.978 170.24 512.338 170.24ZM515.418 170L515.158 167.76V156.36H516.718V170H515.418ZM528.94 170.24C528.167 170.24 527.457 170.033 526.81 169.62C526.163 169.2 525.647 168.613 525.26 167.86C524.873 167.1 524.68 166.207 524.68 165.18C524.68 164.16 524.87 163.277 525.25 162.53C525.63 161.783 526.133 161.21 526.76 160.81C527.393 160.403 528.087 160.2 528.84 160.2C529.54 160.2 530.153 160.37 530.68 160.71C531.213 161.05 531.627 161.54 531.92 162.18C532.213 162.82 532.36 163.593 532.36 164.5H531.76C531.76 163.867 531.633 163.333 531.38 162.9C531.133 162.467 530.81 162.14 530.41 161.92C530.01 161.693 529.58 161.58 529.12 161.58C528.6 161.58 528.123 161.727 527.69 162.02C527.263 162.307 526.92 162.72 526.66 163.26C526.407 163.793 526.28 164.433 526.28 165.18C526.28 165.94 526.407 166.593 526.66 167.14C526.92 167.687 527.263 168.107 527.69 168.4C528.123 168.693 528.6 168.84 529.12 168.84C529.553 168.84 529.97 168.727 530.37 168.5C530.777 168.273 531.11 167.943 531.37 167.51C531.63 167.07 531.76 166.54 531.76 165.92H532.36C532.36 166.847 532.207 167.633 531.9 168.28C531.6 168.92 531.19 169.407 530.67 169.74C530.157 170.073 529.58 170.24 528.94 170.24ZM532.02 170L531.76 167.76V156.36H533.32V170H532.02ZM537.375 170V160.42H538.935V170H537.375ZM538.455 165.68C538.455 164.467 538.572 163.46 538.805 162.66C539.039 161.853 539.379 161.253 539.825 160.86C540.279 160.46 540.829 160.26 541.475 160.26C541.689 160.26 541.882 160.277 542.055 160.31C542.235 160.337 542.415 160.38 542.595 160.44L542.495 161.98C542.309 161.92 542.105 161.87 541.885 161.83C541.665 161.783 541.469 161.76 541.295 161.76C540.729 161.76 540.272 161.923 539.925 162.25C539.579 162.57 539.325 163.023 539.165 163.61C539.012 164.197 538.935 164.887 538.935 165.68H538.455ZM548.062 170.24C547.202 170.24 546.435 170.05 545.762 169.67C545.095 169.29 544.569 168.727 544.182 167.98C543.795 167.233 543.602 166.313 543.602 165.22C543.602 164.12 543.795 163.2 544.182 162.46C544.569 161.713 545.095 161.15 545.762 160.77C546.435 160.39 547.202 160.2 548.062 160.2C548.915 160.2 549.675 160.39 550.342 160.77C551.015 161.15 551.542 161.713 551.922 162.46C552.309 163.2 552.502 164.12 552.502 165.22C552.502 166.313 552.309 167.233 551.922 167.98C551.542 168.727 551.015 169.29 550.342 169.67C549.675 170.05 548.915 170.24 548.062 170.24ZM548.022 168.88C548.642 168.88 549.169 168.733 549.602 168.44C550.035 168.14 550.362 167.717 550.582 167.17C550.809 166.623 550.922 165.973 550.922 165.22C550.922 164.08 550.685 163.183 550.212 162.53C549.739 161.87 549.035 161.54 548.102 161.54C547.475 161.54 546.945 161.69 546.512 161.99C546.085 162.283 545.759 162.707 545.532 163.26C545.312 163.807 545.202 164.46 545.202 165.22C545.202 166.347 545.439 167.24 545.912 167.9C546.392 168.553 547.095 168.88 548.022 168.88ZM559.88 170.24C559.18 170.24 558.57 170.08 558.05 169.76C557.536 169.44 557.14 168.973 556.86 168.36C556.58 167.74 556.44 166.987 556.44 166.1H557.1C557.1 166.693 557.223 167.193 557.47 167.6C557.716 168.007 558.036 168.317 558.43 168.53C558.83 168.737 559.253 168.84 559.7 168.84C560.18 168.84 560.64 168.703 561.08 168.43C561.52 168.15 561.88 167.74 562.16 167.2C562.44 166.66 562.58 165.993 562.58 165.2C562.58 164.44 562.45 163.79 562.19 163.25C561.936 162.71 561.593 162.297 561.16 162.01C560.726 161.723 560.246 161.58 559.72 161.58C559.266 161.58 558.84 161.69 558.44 161.91C558.04 162.13 557.716 162.453 557.47 162.88C557.223 163.3 557.1 163.82 557.1 164.44H556.44C556.44 163.513 556.593 162.737 556.9 162.11C557.206 161.477 557.623 161 558.15 160.68C558.676 160.36 559.266 160.2 559.92 160.2C560.666 160.2 561.363 160.4 562.01 160.8C562.656 161.2 563.18 161.773 563.58 162.52C563.98 163.267 564.18 164.16 564.18 165.2C564.18 166.253 563.976 167.157 563.57 167.91C563.17 168.663 562.643 169.24 561.99 169.64C561.336 170.04 560.633 170.24 559.88 170.24ZM555.54 174.7V160.44H556.84L557.1 162.68V174.7H555.54ZM375.052 180.4H376.312V193H374.752V182.24C374.432 182.46 374.096 182.63 373.742 182.75C373.396 182.863 373.046 182.927 372.692 182.94V181.42C373.112 181.36 373.519 181.25 373.912 181.09C374.312 180.93 374.692 180.7 375.052 180.4ZM385.62 193V181.96C385.62 181.327 385.74 180.81 385.98 180.41C386.227 180.003 386.553 179.703 386.96 179.51C387.373 179.317 387.833 179.22 388.34 179.22C388.613 179.22 388.89 179.24 389.17 179.28C389.457 179.32 389.74 179.38 390.02 179.46L389.72 180.7C389.52 180.62 389.32 180.56 389.12 180.52C388.927 180.48 388.74 180.46 388.56 180.46C388.347 180.46 388.133 180.5 387.92 180.58C387.707 180.66 387.53 180.81 387.39 181.03C387.25 181.25 387.18 181.567 387.18 181.98V193H385.62ZM384.06 184.52V183.44H389.16V184.52H384.06ZM392.83 181.18C392.51 181.18 392.257 181.09 392.07 180.91C391.883 180.723 391.79 180.48 391.79 180.18C391.79 179.887 391.883 179.653 392.07 179.48C392.257 179.307 392.51 179.22 392.83 179.22C393.15 179.22 393.403 179.307 393.59 179.48C393.777 179.653 393.87 179.887 393.87 180.18C393.87 180.48 393.777 180.723 393.59 180.91C393.403 181.09 393.15 181.18 392.83 181.18ZM392.05 193V183.42H393.61V193H392.05ZM397.913 193V179.36H399.473V193H397.913ZM406.838 193.24C406.011 193.24 405.271 193.03 404.618 192.61C403.971 192.183 403.458 191.593 403.078 190.84C402.705 190.087 402.518 189.22 402.518 188.24C402.518 187.193 402.705 186.293 403.078 185.54C403.451 184.787 403.961 184.21 404.608 183.81C405.261 183.403 406.005 183.2 406.838 183.2C407.565 183.2 408.185 183.347 408.698 183.64C409.211 183.933 409.625 184.33 409.938 184.83C410.251 185.33 410.468 185.897 410.588 186.53C410.715 187.157 410.751 187.807 410.698 188.48H403.778V187.52H409.668L409.208 187.82C409.228 187.427 409.205 187.033 409.138 186.64C409.078 186.247 408.961 185.887 408.788 185.56C408.615 185.227 408.371 184.96 408.058 184.76C407.745 184.56 407.345 184.46 406.858 184.46C406.245 184.46 405.731 184.617 405.318 184.93C404.905 185.243 404.595 185.657 404.388 186.17C404.181 186.677 404.078 187.227 404.078 187.82V188.46C404.078 189.127 404.178 189.723 404.378 190.25C404.585 190.777 404.891 191.193 405.298 191.5C405.705 191.807 406.218 191.96 406.838 191.96C407.458 191.96 407.968 191.81 408.368 191.51C408.768 191.21 409.011 190.767 409.098 190.18H410.718C410.618 190.813 410.391 191.36 410.038 191.82C409.685 192.273 409.235 192.623 408.688 192.87C408.141 193.117 407.525 193.24 406.838 193.24ZM418.538 193V179.36H420.098V193H418.538ZM425.023 181.18C424.703 181.18 424.45 181.09 424.263 180.91C424.076 180.723 423.983 180.48 423.983 180.18C423.983 179.887 424.076 179.653 424.263 179.48C424.45 179.307 424.703 179.22 425.023 179.22C425.343 179.22 425.596 179.307 425.783 179.48C425.97 179.653 426.063 179.887 426.063 180.18C426.063 180.48 425.97 180.723 425.783 180.91C425.596 181.09 425.343 181.18 425.023 181.18ZM424.243 193V183.42H425.803V193H424.243ZM443.54 193V187.38C443.54 186.467 443.32 185.773 442.88 185.3C442.447 184.82 441.86 184.58 441.12 184.58C440.253 184.58 439.59 184.917 439.13 185.59C438.67 186.257 438.44 187.18 438.44 188.36H437.72C437.72 187.5 437.803 186.747 437.97 186.1C438.143 185.453 438.393 184.917 438.72 184.49C439.047 184.057 439.443 183.733 439.91 183.52C440.377 183.307 440.907 183.2 441.5 183.2C442.253 183.2 442.897 183.37 443.43 183.71C443.97 184.043 444.383 184.523 444.67 185.15C444.957 185.777 445.1 186.52 445.1 187.38V193H443.54ZM430.1 193V183.44H431.44L431.62 185.36C431.92 184.667 432.34 184.133 432.88 183.76C433.427 183.387 434.08 183.2 434.84 183.2C435.593 183.2 436.237 183.37 436.77 183.71C437.31 184.043 437.723 184.523 438.01 185.15C438.297 185.777 438.44 186.52 438.44 187.38V193H436.9V187.38C436.9 186.467 436.68 185.773 436.24 185.3C435.807 184.82 435.213 184.58 434.46 184.58C433.887 184.58 433.39 184.737 432.97 185.05C432.55 185.363 432.227 185.813 432 186.4C431.773 186.98 431.66 187.673 431.66 188.48V193H430.1ZM449.691 181.18C449.371 181.18 449.118 181.09 448.931 180.91C448.744 180.723 448.651 180.48 448.651 180.18C448.651 179.887 448.744 179.653 448.931 179.48C449.118 179.307 449.371 179.22 449.691 179.22C450.011 179.22 450.264 179.307 450.451 179.48C450.638 179.653 450.731 179.887 450.731 180.18C450.731 180.48 450.638 180.723 450.451 180.91C450.264 181.09 450.011 181.18 449.691 181.18ZM448.911 193V183.42H450.471V193H448.911ZM457.708 193.24C457.188 193.24 456.721 193.14 456.308 192.94C455.895 192.74 455.568 192.44 455.328 192.04C455.088 191.64 454.968 191.14 454.968 190.54V180.78H456.508V190.5C456.508 191.487 456.968 191.98 457.888 191.98C458.161 191.98 458.425 191.95 458.678 191.89C458.938 191.83 459.228 191.74 459.548 191.62L459.768 192.74C459.428 192.887 459.088 193.007 458.748 193.1C458.415 193.193 458.068 193.24 457.708 193.24ZM453.428 184.52V183.44H459.528V184.52H453.428Z" fill="#B8B4B4"/>
<path fill-rule="evenodd" clip-rule="evenodd" d="M396.5 108.25H416H435.5C440.885 108.25 445.25 103.885 445.25 98.5C445.25 93.1152 440.885 88.75 435.5 88.75C434.592 88.75 434.137 88.75 433.82 88.6861C432.851 88.4912 432.391 88.1935 431.817 87.3896C431.629 87.1262 431.363 86.5352 430.833 85.3531C428.292 79.6925 422.607 75.75 416 75.75C409.393 75.75 403.708 79.6925 401.167 85.3531C400.637 86.5352 400.371 87.1262 400.183 87.3896C399.609 88.1935 399.149 88.4912 398.18 88.6861C397.863 88.75 397.409 88.75 396.5 88.75C391.115 88.75 386.75 93.1152 386.75 98.5C386.75 103.885 391.115 108.25 396.5 108.25Z" fill="#356592" fill-opacity="0.24"/>
<mask id="mask0_38_332" style="mask-type:luminance" maskUnits="userSpaceOnUse" x="383" y="72" width="66" height="40">
<path d="M448.5 72.5H383.5V111.5H448.5V72.5Z" fill="white"/>
<path fill-rule="evenodd" clip-rule="evenodd" d="M396.5 108.25H416H435.5C440.885 108.25 445.25 103.885 445.25 98.5C445.25 93.1152 440.885 88.75 435.5 88.75C434.592 88.75 434.137 88.75 433.82 88.6861C432.851 88.4912 432.391 88.1935 431.817 87.3896C431.629 87.1262 431.363 86.5352 430.833 85.3531C428.292 79.6925 422.607 75.75 416 75.75C409.393 75.75 403.708 79.6925 401.167 85.3531C400.637 86.5352 400.371 87.1262 400.183 87.3896C399.609 88.1935 399.149 88.4912 398.18 88.6861C397.863 88.75 397.409 88.75 396.5 88.75C391.115 88.75 386.75 93.1152 386.75 98.5C386.75 103.885 391.115 108.25 396.5 108.25Z" fill="white"/>
</mask>
<g mask="url(#mask0_38_332)">
<path d="M416 106.3H396.5V110.2H416V106.3ZM435.5 106.3H416V110.2H435.5V106.3ZM443.3 98.5C443.3 102.808 439.808 106.3 435.5 106.3V110.2C441.962 110.2 447.2 104.962 447.2 98.5H443.3ZM435.5 90.7C439.808 90.7 443.3 94.1922 443.3 98.5H447.2C447.2 92.0383 441.962 86.8 435.5 86.8V90.7ZM432.612 84.5547C429.768 78.219 423.402 73.8 416 73.8V77.7C421.811 77.7 426.816 81.166 429.054 86.1516L432.612 84.5547ZM416 73.8C408.598 73.8 402.232 78.219 399.388 84.5547L402.946 86.1516C405.184 81.166 410.189 77.7 416 77.7V73.8ZM396.5 86.8C390.038 86.8 384.8 92.0383 384.8 98.5H388.7C388.7 94.1922 392.192 90.7 396.5 90.7V86.8ZM384.8 98.5C384.8 104.962 390.038 110.2 396.5 110.2V106.3C392.192 106.3 388.7 102.808 388.7 98.5H384.8ZM399.388 84.5547C399.119 85.1544 398.93 85.5742 398.786 85.8786C398.626 86.215 398.578 86.2821 398.597 86.2559L401.77 88.5235C401.977 88.2338 402.156 87.8737 402.308 87.5532C402.476 87.2007 402.685 86.7339 402.946 86.1516L399.388 84.5547ZM396.5 90.7C397.293 90.7 398.005 90.7105 398.565 90.5978L397.795 86.7745C397.8 86.7735 397.738 86.7859 397.503 86.7929C397.273 86.7999 396.966 86.8 396.5 86.8V90.7ZM398.597 86.2559C398.383 86.555 398.292 86.6152 398.27 86.6293C398.248 86.6433 398.156 86.7019 397.795 86.7745L398.565 90.5978C399.173 90.4754 399.795 90.2877 400.389 89.9032C400.983 89.5188 401.409 89.0282 401.77 88.5235L398.597 86.2559ZM435.5 86.8C435.034 86.8 434.727 86.7999 434.497 86.7929C434.261 86.7859 434.2 86.7735 434.205 86.7745L433.435 90.5978C433.995 90.7105 434.707 90.7 435.5 90.7V86.8ZM429.054 86.1516C429.315 86.7339 429.525 87.2007 429.692 87.5532C429.844 87.8737 430.023 88.2338 430.23 88.5235L433.403 86.2559C433.422 86.2821 433.374 86.215 433.214 85.8786C433.07 85.5742 432.881 85.1544 432.612 84.5547L429.054 86.1516ZM434.205 86.7745C433.844 86.7019 433.752 86.6433 433.73 86.6293C433.708 86.6152 433.617 86.555 433.403 86.2559L430.23 88.5235C430.591 89.0282 431.017 89.5188 431.611 89.9032C432.205 90.2877 432.827 90.4754 433.435 90.5978L434.205 86.7745Z" fill="#356592" fill-opacity="0.24"/>
</g>
<path fill-rule="evenodd" clip-rule="evenodd" d="M416 73.8C408.598 73.8 402.232 78.2191 399.388 84.5547C399.119 85.1544 398.93 85.5742 398.786 85.8786C398.671 86.1201 398.614 86.2228 398.598 86.2519C398.591 86.2632 398.591 86.2633 398.597 86.2559C398.383 86.5551 398.292 86.6152 398.27 86.6293C398.248 86.6433 398.156 86.702 397.795 86.7745C397.796 86.7745 397.796 86.7745 397.795 86.7745C397.79 86.7753 397.721 86.7864 397.503 86.793C397.273 86.7999 396.966 86.8 396.5 86.8C390.038 86.8 384.8 92.0383 384.8 98.5C384.8 104.962 390.038 110.2 396.5 110.2H398.358L402.258 106.3H396.5C392.192 106.3 388.7 102.808 388.7 98.5C388.7 94.1922 392.192 90.7 396.5 90.7L396.686 90.7002C397.405 90.701 398.049 90.7016 398.565 90.5978C399.173 90.4754 399.795 90.2878 400.389 89.9032C400.983 89.5188 401.409 89.0282 401.77 88.5235C401.977 88.2338 402.156 87.8737 402.308 87.5532C402.473 87.2054 402.679 86.7463 402.936 86.1747L402.946 86.1516C405.184 81.166 410.189 77.7 416 77.7C421.811 77.7 426.816 81.166 429.054 86.1516L429.064 86.1738C429.32 86.7458 429.526 87.2052 429.692 87.5532C429.844 87.8737 430.023 88.2338 430.23 88.5235C430.591 89.0282 431.017 89.5188 431.611 89.9032C432.205 90.2878 432.827 90.4754 433.435 90.5978C433.951 90.7016 434.595 90.701 435.314 90.7002L435.5 90.7C439.808 90.7 443.3 94.1922 443.3 98.5C443.3 102.808 439.808 106.3 435.5 106.3H429.742L433.642 110.2H435.5C441.962 110.2 447.2 104.962 447.2 98.5C447.2 92.0383 441.962 86.8 435.5 86.8C435.034 86.8 434.727 86.7999 434.497 86.793C434.279 86.7864 434.21 86.7753 434.205 86.7745C434.204 86.7744 434.204 86.7744 434.205 86.7745C433.844 86.702 433.752 86.6433 433.73 86.6293C433.708 86.6152 433.617 86.5551 433.403 86.2559C433.406 86.26 433.408 86.2618 433.407 86.2607C433.407 86.2599 433.405 86.257 433.402 86.2519C433.386 86.2228 433.329 86.1201 433.214 85.8786C433.07 85.5742 432.881 85.1544 432.612 84.5547C429.768 78.2191 423.402 73.8 416 73.8Z" fill="white"/>
<path d="M416 105L414.621 103.621L416 102.242L417.379 103.621L416 105ZM417.95 134.25C417.95 135.327 417.077 136.2 416 136.2C414.923 136.2 414.05 135.327 414.05 134.25H417.95ZM401.621 116.621L414.621 103.621L417.379 106.379L404.379 119.379L401.621 116.621ZM417.379 103.621L430.379 116.621L427.621 119.379L414.621 106.379L417.379 103.621ZM417.95 105V134.25H414.05V105H417.95Z" fill="white"/>
<defs>
<linearGradient id="paint0_linear_38_332" x1="416.5" y1="-139" x2="416.5" y2="453.5" gradientUnits="userSpaceOnUse">
<stop stop-color="#0057FF"/>
<stop offset="1" stop-color="#AD00FF" stop-opacity="0.63"/>
</linearGradient>
</defs>
</svg>
