<!DOCTYPE svg PUBLIC "-//W3C//DTD SVG 1.1//EN" "http://www.w3.org/Graphics/SVG/1.1/DTD/svg11.dtd">

<svg fill="#FFFFFF" version="1.1" id="Capa_1" xmlns="http://www.w3.org/2000/svg" xmlns:xlink="http://www.w3.org/1999/xlink" width="800px" height="800px" viewBox="0 0 170.912 170.912" xml:space="preserve">

<g id="SVGRepo_bgCarrier" stroke-width="0"/>

<g id="SVGRepo_tracerCarrier" stroke-linecap="round" stroke-linejoin="round"/>

<g id="SVGRepo_iconCarrier"> <g> <path d="M37.239,77.554l-8.317,5.194l-8.15-13.03l8.317-5.182c-2.012-5.212-2.886-10.638-2.707-16.005l-9.533-2.201l3.48-14.977 l9.532,2.205c2.165-4.905,5.368-9.42,9.454-13.192l-5.188-8.318l12.994-8.144l5.2,8.324c5.194-2.006,10.65-2.898,15.987-2.691 L70.517,0l14.982,3.449l-2.201,9.526c4.896,2.189,9.374,5.361,13.177,9.441l8.303-5.194l8.178,13.037l-8.342,5.176 c2.003,5.194,2.91,10.65,2.709,15.999l9.518,2.201l-3.477,14.989l-9.512-2.205c-0.109,0.229-0.237,0.448-0.353,0.679 c-1.675-1.325-3.423-2.576-5.304-3.663c-1.909-1.096-3.897-2.006-5.938-2.804c3.325-7.974,2.926-17.373-2.006-25.255 c-8.062-12.942-25.084-16.864-38.048-8.79c-12.9,8.074-16.843,25.115-8.771,38.024c0.977,1.559,2.101,2.971,3.315,4.268 c-3.194,2.85-5.998,6.145-8.275,9.877C38.062,78.352,37.632,77.978,37.239,77.554z M149.009,96.087l5.054-0.67l-1.06-7.946 l-5.054,0.676c-0.907-2.649-2.326-5.148-4.269-7.319l3.118-4.046l-6.376-4.869l-3.093,4.058c-2.606-1.291-5.371-2.019-8.159-2.188 l-0.683-5.063l-7.946,1.081l0.664,5.054c-2.606,0.874-5.072,2.296-7.216,4.187c1.596,2.691,2.898,5.581,3.909,8.595 c0.067-0.091,0.115-0.194,0.177-0.292c4.177-5.447,11.946-6.488,17.378-2.323c5.432,4.149,6.479,11.932,2.326,17.369 c-4.152,5.444-11.935,6.473-17.378,2.32c-0.11-0.073-0.171-0.171-0.269-0.25c-0.194,3.173-0.755,6.303-1.638,9.353l0.055-0.061 c2.582,1.303,5.347,2.034,8.153,2.187l0.676,5.054l7.935-1.047l-0.664-5.066c2.643-0.871,5.134-2.302,7.308-4.244l4.055,3.111 l4.872-6.369l-4.074-3.094C148.107,101.664,148.845,98.863,149.009,96.087z M108.942,120.571 c-10.443,18.121-33.655,24.32-51.737,13.877c-18.103-10.437-24.326-33.654-13.886-51.736 c10.449-18.088,33.676-24.299,51.764-13.868C113.168,79.28,119.392,102.505,108.942,120.571z M91.941,74.263 c-15.089-8.698-34.462-3.51-43.185,11.585c-8.713,15.099-3.531,34.462,11.573,43.188c15.107,8.726,34.461,3.501,43.169-11.588 C112.236,102.347,107.042,82.979,91.941,74.263z M35.139,153.824l16.279,9.413l12.547-21.701l-16.283-9.414L35.139,153.824z M36.877,169.649c4.503,2.594,10.245,1.066,12.863-3.446l-16.304-9.407C30.831,161.302,32.374,167.062,36.877,169.649z"/> </g> </g>

</svg>